<?xml version="1.0" encoding="UTF-8"?>
<svg xmlns="http://www.w3.org/2000/svg" version="1.1" xmlns:xlink="http://www.w3.org/1999/xlink" viewBox="0 0 1581.9 789.9">
  <!-- Generator: Adobe Illustrator 29.1.0, SVG Export Plug-In . SVG Version: 2.1.0 Build 142)  -->
  <defs>
    <style>
      .st0 {
        opacity: .6;
      }

      .st1 {
        fill: #6f6f6e;
      }

      .st2 {
        fill: #444b57;
      }

      .st3 {
        fill: #b1b1b1;
      }

      .st4 {
        opacity: .9;
      }

      .st4, .st5 {
        fill: #ececec;
      }

      .st6 {
        opacity: .4;
      }

      .st7 {
        fill: none;
      }

      .st8 {
        fill: #575756;
      }

      .st9 {
        fill: #00945a;
      }

      .st10 {
        fill: #ff8300;
      }

      .st11 {
        opacity: .8;
      }

      .st12 {
        fill: #ffcd00;
      }

      .st13 {
        fill: #d2df8a;
      }

      .st14 {
        fill: #0062ae;
      }

      .st15 {
        isolation: isolate;
      }

      .st16 {
        fill: #b2292e;
      }

      .st17 {
        opacity: .1;
      }

      .st17, .st18 {
        mix-blend-mode: multiply;
      }

      .st18 {
        opacity: .2;
      }

      .st19 {
        fill: #9c9b9b;
      }

      .st20 {
        fill: #868686;
      }

      .st21 {
        fill: #e3e3e2;
      }

      .st22 {
        fill: #e20613;
      }

      .st23 {
        fill: #cfcfcf;
      }

      .st24 {
        clip-path: url(#clippath);
      }

      .st25 {
        fill: #d9d9d9;
      }

      .st26 {
        fill: #c6c6c5;
      }
    </style>
    <clipPath id="clippath">
      <rect class="st7" x="-6" y="-9" width="1593.8" height="817.7"/>
    </clipPath>
  </defs>
  <g class="st15">
    <g id="Capa_1">
      <g class="st24">
        <rect class="st5" x="-6" y="-20.8" width="1593.8" height="829.6"/>
        <g>
          <g>
            <polygon class="st5" points="93.8 601.8 16.1 524.2 -95 635.3 16.1 746.3 93.8 668.7 60.3 635.3 93.8 601.8"/>
            <polygon class="st5" points="265.9 601.8 188.2 524.2 110.5 601.8 77.1 635.3 110.5 668.7 188.2 746.3 265.9 668.7 232.5 635.3 265.9 601.8"/>
            <polygon class="st21" points="438 601.8 360.3 524.2 282.7 601.8 249.2 635.3 282.7 668.7 360.3 746.3 438 668.7 404.6 635.3 438 601.8"/>
            <polygon class="st25" points="610.1 601.8 532.4 524.2 454.8 601.8 421.4 635.3 454.8 668.7 532.4 746.3 610.1 668.7 576.7 635.3 610.1 601.8"/>
            <polygon class="st23" points="782.2 601.8 704.5 524.2 626.9 601.8 593.5 635.3 626.9 668.7 704.5 746.3 782.2 668.7 748.8 635.3 782.2 601.8"/>
            <polygon class="st26" points="954.3 601.8 876.7 524.2 799 601.8 765.6 635.3 799 668.7 876.7 746.3 954.3 668.7 920.9 635.3 954.3 601.8"/>
            <polygon class="st26" points="1126.4 601.8 1048.8 524.2 971.1 601.8 937.7 635.3 971.1 668.7 1048.8 746.3 1126.4 668.7 1093 635.3 1126.4 601.8"/>
            <polygon class="st3" points="1298.7 601.8 1221.1 524.2 1143.4 601.8 1110 635.3 1143.4 668.7 1221.1 746.3 1298.7 668.7 1265.3 635.3 1298.7 601.8"/>
            <polygon class="st19" points="1471.1 601.8 1393.4 524.2 1315.7 601.8 1282.3 635.3 1315.7 668.7 1393.4 746.3 1471.1 668.7 1437.6 635.3 1471.1 601.8"/>
            <polygon class="st20" points="1643.4 601.8 1565.7 524.2 1488 601.8 1454.6 635.3 1488 668.7 1565.7 746.3 1643.4 668.7 1610 635.3 1643.4 601.8"/>
            <polygon class="st1" points="1815.7 601.8 1738 524.2 1660.3 601.8 1626.9 635.3 1660.3 668.7 1738 746.3 1815.7 668.7 1782.3 635.3 1815.7 601.8"/>
          </g>
          <g>
            <g>
              <polygon class="st5" points="183.2 446.1 105.6 368.4 -5.5 479.5 105.6 590.6 183.2 512.9 149.8 479.5 183.2 446.1"/>
              <polygon class="st5" points="355.3 446.1 277.7 368.4 200 446.1 166.6 479.5 200 512.9 277.7 590.6 355.3 512.9 321.9 479.5 355.3 446.1"/>
              <polygon class="st21" points="527.4 446.1 449.8 368.4 372.1 446.1 338.7 479.5 372.1 512.9 449.8 590.6 527.4 512.9 494 479.5 527.4 446.1"/>
              <polygon class="st25" points="699.6 446.1 621.9 368.4 544.2 446.1 510.8 479.5 544.2 512.9 621.9 590.6 699.6 512.9 666.2 479.5 699.6 446.1"/>
              <polygon class="st23" points="871.7 446.1 794 368.4 716.3 446.1 682.9 479.5 716.3 512.9 794 590.6 871.7 512.9 838.3 479.5 871.7 446.1"/>
              <polygon class="st26" points="1043.8 446.1 966.1 368.4 888.5 446.1 855.1 479.5 888.5 512.9 966.1 590.6 1043.8 512.9 1010.4 479.5 1043.8 446.1"/>
              <polygon class="st26" points="1215.9 446.1 1138.2 368.4 1060.6 446.1 1027.2 479.5 1060.6 512.9 1138.2 590.6 1215.9 512.9 1182.5 479.5 1215.9 446.1"/>
              <polygon class="st3" points="1388.2 446.1 1310.5 368.4 1232.9 446.1 1199.5 479.5 1232.9 512.9 1310.5 590.6 1388.2 512.9 1354.8 479.5 1388.2 446.1"/>
              <polygon class="st19" points="1560.5 446.1 1482.9 368.4 1405.2 446.1 1371.8 479.5 1405.2 512.9 1482.9 590.6 1560.5 512.9 1527.1 479.5 1560.5 446.1"/>
              <polygon class="st20" points="1732.8 446.1 1655.2 368.4 1577.5 446.1 1544.1 479.5 1577.5 512.9 1655.2 590.6 1732.8 512.9 1699.4 479.5 1732.8 446.1"/>
              <polygon class="st1" points="1905.1 446.1 1827.5 368.4 1749.8 446.1 1716.4 479.5 1749.8 512.9 1827.5 590.6 1905.1 512.9 1871.7 479.5 1905.1 446.1"/>
            </g>
            <g>
              <polygon class="st5" points="183.2 757.6 105.6 679.9 -5.5 791 105.6 902.1 183.2 824.4 149.8 791 183.2 757.6"/>
              <polygon class="st14" points="355.3 757.6 277.7 679.9 200 757.6 166.6 791 200 824.4 277.7 902.1 355.3 824.4 321.9 791 355.3 757.6"/>
              <polygon class="st9" points="527.4 757.6 449.8 679.9 372.1 757.6 338.7 791 372.1 824.4 449.8 902.1 527.4 824.4 494 791 527.4 757.6"/>
              <polygon class="st12" points="699.6 757.6 621.9 679.9 544.2 757.6 510.8 791 544.2 824.4 621.9 902.1 699.6 824.4 666.2 791 699.6 757.6"/>
              <polygon class="st22" points="871.7 757.6 794 679.9 716.3 757.6 682.9 791 716.3 824.4 794 902.1 871.7 824.4 838.3 791 871.7 757.6"/>
              <polygon class="st13" points="1043.8 757.6 966.1 679.9 888.5 757.6 855.1 791 888.5 824.4 966.1 902.1 1043.8 824.4 1010.4 791 1043.8 757.6"/>
              <polygon class="st10" points="1215.9 757.6 1138.2 679.9 1060.6 757.6 1027.2 791 1060.6 824.4 1138.2 902.1 1215.9 824.4 1182.5 791 1215.9 757.6"/>
              <polygon class="st16" points="1388.2 757.6 1310.5 679.9 1232.9 757.6 1199.5 791 1232.9 824.4 1310.5 902.1 1388.2 824.4 1354.8 791 1388.2 757.6"/>
              <polygon class="st19" points="1560.5 757.6 1482.9 679.9 1405.2 757.6 1371.8 791 1405.2 824.4 1482.9 902.1 1560.5 824.4 1527.1 791 1560.5 757.6"/>
              <polygon class="st20" points="1732.8 757.6 1655.2 679.9 1577.5 757.6 1544.1 791 1577.5 824.4 1655.2 902.1 1732.8 824.4 1699.4 791 1732.8 757.6"/>
              <polygon class="st1" points="1905.1 757.6 1827.5 679.9 1749.8 757.6 1716.4 791 1749.8 824.4 1827.5 902.1 1905.1 824.4 1871.7 791 1905.1 757.6"/>
            </g>
            <g>
              <polygon class="st5" points="93.8 913.3 16.1 835.7 -95 946.7 16.1 1057.8 93.8 980.1 60.3 946.7 93.8 913.3"/>
              <polygon class="st5" points="265.9 913.3 188.2 835.7 110.5 913.3 77.1 946.7 110.5 980.1 188.2 1057.8 265.9 980.1 232.5 946.7 265.9 913.3"/>
              <polygon class="st21" points="438 913.3 360.3 835.7 282.7 913.3 249.2 946.7 282.7 980.1 360.3 1057.8 438 980.1 404.6 946.7 438 913.3"/>
              <polygon class="st25" points="610.1 913.3 532.4 835.7 454.8 913.3 421.4 946.7 454.8 980.1 532.4 1057.8 610.1 980.1 576.7 946.7 610.1 913.3"/>
              <polygon class="st23" points="782.2 913.3 704.5 835.7 626.9 913.3 593.5 946.7 626.9 980.1 704.5 1057.8 782.2 980.1 748.8 946.7 782.2 913.3"/>
              <polygon class="st26" points="954.3 913.3 876.7 835.7 799 913.3 765.6 946.7 799 980.1 876.7 1057.8 954.3 980.1 920.9 946.7 954.3 913.3"/>
              <polygon class="st26" points="1126.4 913.3 1048.8 835.7 971.1 913.3 937.7 946.7 971.1 980.1 1048.8 1057.8 1126.4 980.1 1093 946.7 1126.4 913.3"/>
              <polygon class="st3" points="1298.7 913.3 1221.1 835.7 1143.4 913.3 1110 946.7 1143.4 980.1 1221.1 1057.8 1298.7 980.1 1265.3 946.7 1298.7 913.3"/>
              <polygon class="st19" points="1471.1 913.3 1393.4 835.7 1315.7 913.3 1282.3 946.7 1315.7 980.1 1393.4 1057.8 1471.1 980.1 1437.6 946.7 1471.1 913.3"/>
              <polygon class="st20" points="1643.4 913.3 1565.7 835.7 1488 913.3 1454.6 946.7 1488 980.1 1565.7 1057.8 1643.4 980.1 1610 946.7 1643.4 913.3"/>
              <polygon class="st1" points="1815.7 913.3 1738 835.7 1660.3 913.3 1626.9 946.7 1660.3 980.1 1738 1057.8 1815.7 980.1 1782.3 946.7 1815.7 913.3"/>
              <polygon class="st8" points="1993.6 601.8 1916 524.2 1838.3 601.8 1804.9 635.3 1838.3 668.7 1916 746.3 1993.6 668.7 1960.2 635.3 1993.6 601.8"/>
              <polygon class="st8" points="1993.6 913.3 1916 835.7 1838.3 913.3 1804.9 946.7 1838.3 980.1 1916 1057.8 1993.6 980.1 1960.2 946.7 1993.6 913.3"/>
            </g>
            <g>
              <polygon class="st5" points="183.2 1069.1 105.6 991.4 -5.5 1102.5 105.6 1213.5 183.2 1135.9 149.8 1102.5 183.2 1069.1"/>
              <polygon class="st5" points="355.3 1069.1 277.7 991.4 200 1069.1 166.6 1102.5 200 1135.9 277.7 1213.5 355.3 1135.9 321.9 1102.5 355.3 1069.1"/>
              <polygon class="st21" points="527.4 1069.1 449.8 991.4 372.1 1069.1 338.7 1102.5 372.1 1135.9 449.8 1213.5 527.4 1135.9 494 1102.5 527.4 1069.1"/>
              <polygon class="st25" points="699.6 1069.1 621.9 991.4 544.2 1069.1 510.8 1102.5 544.2 1135.9 621.9 1213.5 699.6 1135.9 666.2 1102.5 699.6 1069.1"/>
              <polygon class="st23" points="871.7 1069.1 794 991.4 716.3 1069.1 682.9 1102.5 716.3 1135.9 794 1213.5 871.7 1135.9 838.3 1102.5 871.7 1069.1"/>
              <polygon class="st26" points="1043.8 1069.1 966.1 991.4 888.5 1069.1 855.1 1102.5 888.5 1135.9 966.1 1213.5 1043.8 1135.9 1010.4 1102.5 1043.8 1069.1"/>
              <polygon class="st26" points="1215.9 1069.1 1138.2 991.4 1060.6 1069.1 1027.2 1102.5 1060.6 1135.9 1138.2 1213.5 1215.9 1135.9 1182.5 1102.5 1215.9 1069.1"/>
              <polygon class="st3" points="1388.2 1069.1 1310.5 991.4 1232.9 1069.1 1199.5 1102.5 1232.9 1135.9 1310.5 1213.5 1388.2 1135.9 1354.8 1102.5 1388.2 1069.1"/>
              <polygon class="st19" points="1560.5 1069.1 1482.9 991.4 1405.2 1069.1 1371.8 1102.5 1405.2 1135.9 1482.9 1213.5 1560.5 1135.9 1527.1 1102.5 1560.5 1069.1"/>
              <polygon class="st20" points="1732.8 1069.1 1655.2 991.4 1577.5 1069.1 1544.1 1102.5 1577.5 1135.9 1655.2 1213.5 1732.8 1135.9 1699.4 1102.5 1732.8 1069.1"/>
              <polygon class="st1" points="1905.1 1069.1 1827.5 991.4 1749.8 1069.1 1716.4 1102.5 1749.8 1135.9 1827.5 1213.5 1905.1 1135.9 1871.7 1102.5 1905.1 1069.1"/>
            </g>
            <g>
              <g>
                <polygon class="st5" points="183.2 134.6 105.6 57 -5.5 168 105.6 279.1 183.2 201.4 149.8 168 183.2 134.6"/>
                <polygon class="st5" points="355.3 134.6 277.7 57 200 134.6 166.6 168 200 201.4 277.7 279.1 355.3 201.4 321.9 168 355.3 134.6"/>
                <polygon class="st21" points="527.4 134.6 449.8 57 372.1 134.6 338.7 168 372.1 201.4 449.8 279.1 527.4 201.4 494 168 527.4 134.6"/>
                <polygon class="st25" points="699.6 134.6 621.9 57 544.2 134.6 510.8 168 544.2 201.4 621.9 279.1 699.6 201.4 666.2 168 699.6 134.6"/>
                <polygon class="st23" points="871.7 134.6 794 57 716.3 134.6 682.9 168 716.3 201.4 794 279.1 871.7 201.4 838.3 168 871.7 134.6"/>
                <polygon class="st26" points="1043.8 134.6 966.1 57 888.5 134.6 855.1 168 888.5 201.4 966.1 279.1 1043.8 201.4 1010.4 168 1043.8 134.6"/>
                <polygon class="st26" points="1215.9 134.6 1138.2 57 1060.6 134.6 1027.2 168 1060.6 201.4 1138.2 279.1 1215.9 201.4 1182.5 168 1215.9 134.6"/>
                <polygon class="st3" points="1388.2 134.6 1310.5 57 1232.9 134.6 1199.5 168 1232.9 201.4 1310.5 279.1 1388.2 201.4 1354.8 168 1388.2 134.6"/>
                <polygon class="st19" points="1560.5 134.6 1482.9 57 1405.2 134.6 1371.8 168 1405.2 201.4 1482.9 279.1 1560.5 201.4 1527.1 168 1560.5 134.6"/>
                <polygon class="st20" points="1732.8 134.6 1655.2 57 1577.5 134.6 1544.1 168 1577.5 201.4 1655.2 279.1 1732.8 201.4 1699.4 168 1732.8 134.6"/>
                <polygon class="st1" points="1905.1 134.6 1827.5 57 1749.8 134.6 1716.4 168 1749.8 201.4 1827.5 279.1 1905.1 201.4 1871.7 168 1905.1 134.6"/>
              </g>
              <g>
                <polygon class="st5" points="93.8 290.4 16.1 212.7 -95 323.8 16.1 434.8 93.8 357.2 60.3 323.8 93.8 290.4"/>
                <polygon class="st5" points="265.9 290.4 188.2 212.7 110.5 290.4 77.1 323.8 110.5 357.2 188.2 434.8 265.9 357.2 232.5 323.8 265.9 290.4"/>
                <polygon class="st21" points="438 290.4 360.3 212.7 282.7 290.4 249.2 323.8 282.7 357.2 360.3 434.8 438 357.2 404.6 323.8 438 290.4"/>
                <polygon class="st25" points="610.1 290.4 532.4 212.7 454.8 290.4 421.4 323.8 454.8 357.2 532.4 434.8 610.1 357.2 576.7 323.8 610.1 290.4"/>
                <polygon class="st23" points="782.2 290.4 704.5 212.7 626.9 290.4 593.5 323.8 626.9 357.2 704.5 434.8 782.2 357.2 748.8 323.8 782.2 290.4"/>
                <polygon class="st26" points="954.3 290.4 876.7 212.7 799 290.4 765.6 323.8 799 357.2 876.7 434.8 954.3 357.2 920.9 323.8 954.3 290.4"/>
                <polygon class="st26" points="1126.4 290.4 1048.8 212.7 971.1 290.4 937.7 323.8 971.1 357.2 1048.8 434.8 1126.4 357.2 1093 323.8 1126.4 290.4"/>
                <polygon class="st3" points="1298.7 290.4 1221.1 212.7 1143.4 290.4 1110 323.8 1143.4 357.2 1221.1 434.8 1298.7 357.2 1265.3 323.8 1298.7 290.4"/>
                <polygon class="st19" points="1471.1 290.4 1393.4 212.7 1315.7 290.4 1282.3 323.8 1315.7 357.2 1393.4 434.8 1471.1 357.2 1437.6 323.8 1471.1 290.4"/>
                <polygon class="st20" points="1643.4 290.4 1565.7 212.7 1488 290.4 1454.6 323.8 1488 357.2 1565.7 434.8 1643.4 357.2 1610 323.8 1643.4 290.4"/>
                <polygon class="st1" points="1815.7 290.4 1738 212.7 1660.3 290.4 1626.9 323.8 1660.3 357.2 1738 434.8 1815.7 357.2 1782.3 323.8 1815.7 290.4"/>
              </g>
              <polygon class="st8" points="1993.6 290.4 1916 212.7 1838.3 290.4 1804.9 323.8 1838.3 357.2 1916 434.8 1993.6 357.2 1960.2 323.8 1993.6 290.4"/>
            </g>
            <g class="st11">
              <g>
                <polygon class="st5" points="183.2 -180.2 105.6 -257.8 -5.5 -146.8 105.6 -35.7 183.2 -113.4 149.8 -146.8 183.2 -180.2"/>
                <polygon class="st5" points="355.3 -180.2 277.7 -257.8 200 -180.2 166.6 -146.8 200 -113.4 277.7 -35.7 355.3 -113.4 321.9 -146.8 355.3 -180.2"/>
                <polygon class="st21" points="527.4 -180.2 449.8 -257.8 372.1 -180.2 338.7 -146.8 372.1 -113.4 449.8 -35.7 527.4 -113.4 494 -146.8 527.4 -180.2"/>
                <polygon class="st25" points="699.6 -180.2 621.9 -257.8 544.2 -180.2 510.8 -146.8 544.2 -113.4 621.9 -35.7 699.6 -113.4 666.2 -146.8 699.6 -180.2"/>
                <polygon class="st23" points="871.7 -180.2 794 -257.8 716.3 -180.2 682.9 -146.8 716.3 -113.4 794 -35.7 871.7 -113.4 838.3 -146.8 871.7 -180.2"/>
                <polygon class="st26" points="1043.8 -180.2 966.1 -257.8 888.5 -180.2 855.1 -146.8 888.5 -113.4 966.1 -35.7 1043.8 -113.4 1010.4 -146.8 1043.8 -180.2"/>
                <polygon class="st26" points="1215.9 -180.2 1138.2 -257.8 1060.6 -180.2 1027.2 -146.8 1060.6 -113.4 1138.2 -35.7 1215.9 -113.4 1182.5 -146.8 1215.9 -180.2"/>
                <polygon class="st3" points="1388.2 -180.2 1310.5 -257.8 1232.9 -180.2 1199.5 -146.8 1232.9 -113.4 1310.5 -35.7 1388.2 -113.4 1354.8 -146.8 1388.2 -180.2"/>
                <polygon class="st19" points="1560.5 -180.2 1482.9 -257.8 1405.2 -180.2 1371.8 -146.8 1405.2 -113.4 1482.9 -35.7 1560.5 -113.4 1527.1 -146.8 1560.5 -180.2"/>
                <polygon class="st20" points="1732.8 -180.2 1655.2 -257.8 1577.5 -180.2 1544.1 -146.8 1577.5 -113.4 1655.2 -35.7 1732.8 -113.4 1699.4 -146.8 1732.8 -180.2"/>
                <polygon class="st1" points="1905.1 -180.2 1827.5 -257.8 1749.8 -180.2 1716.4 -146.8 1749.8 -113.4 1827.5 -35.7 1905.1 -113.4 1871.7 -146.8 1905.1 -180.2"/>
              </g>
              <g>
                <polygon class="st5" points="93.8 -24.4 16.1 -102.1 -95 9 16.1 120 93.8 42.4 60.3 9 93.8 -24.4"/>
                <polygon class="st5" points="265.9 -24.4 188.2 -102.1 110.5 -24.4 77.1 9 110.5 42.4 188.2 120 265.9 42.4 232.5 9 265.9 -24.4"/>
                <polygon class="st21" points="438 -24.4 360.3 -102.1 282.7 -24.4 249.2 9 282.7 42.4 360.3 120 438 42.4 404.6 9 438 -24.4"/>
                <polygon class="st25" points="610.1 -24.4 532.4 -102.1 454.8 -24.4 421.4 9 454.8 42.4 532.4 120 610.1 42.4 576.7 9 610.1 -24.4"/>
                <polygon class="st23" points="782.2 -24.4 704.5 -102.1 626.9 -24.4 593.5 9 626.9 42.4 704.5 120 782.2 42.4 748.8 9 782.2 -24.4"/>
                <polygon class="st26" points="954.3 -24.4 876.7 -102.1 799 -24.4 765.6 9 799 42.4 876.7 120 954.3 42.4 920.9 9 954.3 -24.4"/>
                <polygon class="st26" points="1126.4 -24.4 1048.8 -102.1 971.1 -24.4 937.7 9 971.1 42.4 1048.8 120 1126.4 42.4 1093 9 1126.4 -24.4"/>
                <polygon class="st3" points="1298.7 -24.4 1221.1 -102.1 1143.4 -24.4 1110 9 1143.4 42.4 1221.1 120 1298.7 42.4 1265.3 9 1298.7 -24.4"/>
                <polygon class="st19" points="1471.1 -24.4 1393.4 -102.1 1315.7 -24.4 1282.3 9 1315.7 42.4 1393.4 120 1471.1 42.4 1437.6 9 1471.1 -24.4"/>
                <polygon class="st20" points="1643.4 -24.4 1565.7 -102.1 1488 -24.4 1454.6 9 1488 42.4 1565.7 120 1643.4 42.4 1610 9 1643.4 -24.4"/>
                <polygon class="st1" points="1815.7 -24.4 1738 -102.1 1660.3 -24.4 1626.9 9 1660.3 42.4 1738 120 1815.7 42.4 1782.3 9 1815.7 -24.4"/>
              </g>
              <polygon class="st8" points="1993.6 -24.4 1916 -102.1 1838.3 -24.4 1804.9 9 1838.3 42.4 1916 120 1993.6 42.4 1960.2 9 1993.6 -24.4"/>
            </g>
            <g class="st0">
              <g>
                <polygon class="st5" points="183.2 -495 105.6 -572.6 -5.5 -461.6 105.6 -350.5 183.2 -428.2 149.8 -461.6 183.2 -495"/>
                <polygon class="st5" points="355.3 -495 277.7 -572.6 200 -495 166.6 -461.6 200 -428.2 277.7 -350.5 355.3 -428.2 321.9 -461.6 355.3 -495"/>
                <polygon class="st21" points="527.4 -495 449.8 -572.6 372.1 -495 338.7 -461.6 372.1 -428.2 449.8 -350.5 527.4 -428.2 494 -461.6 527.4 -495"/>
                <polygon class="st25" points="699.6 -495 621.9 -572.6 544.2 -495 510.8 -461.6 544.2 -428.2 621.9 -350.5 699.6 -428.2 666.2 -461.6 699.6 -495"/>
                <polygon class="st23" points="871.7 -495 794 -572.6 716.3 -495 682.9 -461.6 716.3 -428.2 794 -350.5 871.7 -428.2 838.3 -461.6 871.7 -495"/>
                <polygon class="st26" points="1043.8 -495 966.1 -572.6 888.5 -495 855.1 -461.6 888.5 -428.2 966.1 -350.5 1043.8 -428.2 1010.4 -461.6 1043.8 -495"/>
                <polygon class="st26" points="1215.9 -495 1138.2 -572.6 1060.6 -495 1027.2 -461.6 1060.6 -428.2 1138.2 -350.5 1215.9 -428.2 1182.5 -461.6 1215.9 -495"/>
                <polygon class="st3" points="1388.2 -495 1310.5 -572.6 1232.9 -495 1199.5 -461.6 1232.9 -428.2 1310.5 -350.5 1388.2 -428.2 1354.8 -461.6 1388.2 -495"/>
                <polygon class="st19" points="1560.5 -495 1482.9 -572.6 1405.2 -495 1371.8 -461.6 1405.2 -428.2 1482.9 -350.5 1560.5 -428.2 1527.1 -461.6 1560.5 -495"/>
                <polygon class="st20" points="1732.8 -495 1655.2 -572.6 1577.5 -495 1544.1 -461.6 1577.5 -428.2 1655.2 -350.5 1732.8 -428.2 1699.4 -461.6 1732.8 -495"/>
                <polygon class="st1" points="1905.1 -495 1827.5 -572.6 1749.8 -495 1716.4 -461.6 1749.8 -428.2 1827.5 -350.5 1905.1 -428.2 1871.7 -461.6 1905.1 -495"/>
              </g>
              <g>
                <polygon class="st5" points="93.8 -339.2 16.1 -416.9 -95 -305.8 16.1 -194.8 93.8 -272.4 60.3 -305.8 93.8 -339.2"/>
                <polygon class="st5" points="265.9 -339.2 188.2 -416.9 110.5 -339.2 77.1 -305.8 110.5 -272.4 188.2 -194.8 265.9 -272.4 232.5 -305.8 265.9 -339.2"/>
                <polygon class="st21" points="438 -339.2 360.3 -416.9 282.7 -339.2 249.2 -305.8 282.7 -272.4 360.3 -194.8 438 -272.4 404.6 -305.8 438 -339.2"/>
                <polygon class="st25" points="610.1 -339.2 532.4 -416.9 454.8 -339.2 421.4 -305.8 454.8 -272.4 532.4 -194.8 610.1 -272.4 576.7 -305.8 610.1 -339.2"/>
                <polygon class="st23" points="782.2 -339.2 704.5 -416.9 626.9 -339.2 593.5 -305.8 626.9 -272.4 704.5 -194.8 782.2 -272.4 748.8 -305.8 782.2 -339.2"/>
                <polygon class="st26" points="954.3 -339.2 876.7 -416.9 799 -339.2 765.6 -305.8 799 -272.4 876.7 -194.8 954.3 -272.4 920.9 -305.8 954.3 -339.2"/>
                <polygon class="st26" points="1126.4 -339.2 1048.8 -416.9 971.1 -339.2 937.7 -305.8 971.1 -272.4 1048.8 -194.8 1126.4 -272.4 1093 -305.8 1126.4 -339.2"/>
                <polygon class="st3" points="1298.7 -339.2 1221.1 -416.9 1143.4 -339.2 1110 -305.8 1143.4 -272.4 1221.1 -194.8 1298.7 -272.4 1265.3 -305.8 1298.7 -339.2"/>
                <polygon class="st19" points="1471.1 -339.2 1393.4 -416.9 1315.7 -339.2 1282.3 -305.8 1315.7 -272.4 1393.4 -194.8 1471.1 -272.4 1437.6 -305.8 1471.1 -339.2"/>
                <polygon class="st20" points="1643.4 -339.2 1565.7 -416.9 1488 -339.2 1454.6 -305.8 1488 -272.4 1565.7 -194.8 1643.4 -272.4 1610 -305.8 1643.4 -339.2"/>
                <polygon class="st1" points="1815.7 -339.2 1738 -416.9 1660.3 -339.2 1626.9 -305.8 1660.3 -272.4 1738 -194.8 1815.7 -272.4 1782.3 -305.8 1815.7 -339.2"/>
              </g>
              <polygon class="st8" points="1993.6 -339.2 1916 -416.9 1838.3 -339.2 1804.9 -305.8 1838.3 -272.4 1916 -194.8 1993.6 -272.4 1960.2 -305.8 1993.6 -339.2"/>
            </g>
            <g class="st6">
              <g>
                <polygon class="st5" points="183.2 -809.8 105.6 -887.4 -5.5 -776.4 105.6 -665.3 183.2 -743 149.8 -776.4 183.2 -809.8"/>
                <polygon class="st5" points="355.3 -809.8 277.7 -887.4 200 -809.8 166.6 -776.4 200 -743 277.7 -665.3 355.3 -743 321.9 -776.4 355.3 -809.8"/>
                <polygon class="st21" points="527.4 -809.8 449.8 -887.4 372.1 -809.8 338.7 -776.4 372.1 -743 449.8 -665.3 527.4 -743 494 -776.4 527.4 -809.8"/>
                <polygon class="st25" points="699.6 -809.8 621.9 -887.4 544.2 -809.8 510.8 -776.4 544.2 -743 621.9 -665.3 699.6 -743 666.2 -776.4 699.6 -809.8"/>
                <polygon class="st23" points="871.7 -809.8 794 -887.4 716.3 -809.8 682.9 -776.4 716.3 -743 794 -665.3 871.7 -743 838.3 -776.4 871.7 -809.8"/>
                <polygon class="st26" points="1043.8 -809.8 966.1 -887.4 888.5 -809.8 855.1 -776.4 888.5 -743 966.1 -665.3 1043.8 -743 1010.4 -776.4 1043.8 -809.8"/>
                <polygon class="st26" points="1215.9 -809.8 1138.2 -887.4 1060.6 -809.8 1027.2 -776.4 1060.6 -743 1138.2 -665.3 1215.9 -743 1182.5 -776.4 1215.9 -809.8"/>
                <polygon class="st3" points="1388.2 -809.8 1310.5 -887.4 1232.9 -809.8 1199.5 -776.4 1232.9 -743 1310.5 -665.3 1388.2 -743 1354.8 -776.4 1388.2 -809.8"/>
                <polygon class="st19" points="1560.5 -809.8 1482.9 -887.4 1405.2 -809.8 1371.8 -776.4 1405.2 -743 1482.9 -665.3 1560.5 -743 1527.1 -776.4 1560.5 -809.8"/>
                <polygon class="st20" points="1732.8 -809.8 1655.2 -887.4 1577.5 -809.8 1544.1 -776.4 1577.5 -743 1655.2 -665.3 1732.8 -743 1699.4 -776.4 1732.8 -809.8"/>
                <polygon class="st1" points="1905.1 -809.8 1827.5 -887.4 1749.8 -809.8 1716.4 -776.4 1749.8 -743 1827.5 -665.3 1905.1 -743 1871.7 -776.4 1905.1 -809.8"/>
              </g>
              <g>
                <polygon class="st5" points="93.8 -654 16.1 -731.7 -95 -620.6 16.1 -509.5 93.8 -587.2 60.3 -620.6 93.8 -654"/>
                <polygon class="st5" points="265.9 -654 188.2 -731.7 110.5 -654 77.1 -620.6 110.5 -587.2 188.2 -509.5 265.9 -587.2 232.5 -620.6 265.9 -654"/>
                <polygon class="st21" points="438 -654 360.3 -731.7 282.7 -654 249.2 -620.6 282.7 -587.2 360.3 -509.5 438 -587.2 404.6 -620.6 438 -654"/>
                <polygon class="st25" points="610.1 -654 532.4 -731.7 454.8 -654 421.4 -620.6 454.8 -587.2 532.4 -509.5 610.1 -587.2 576.7 -620.6 610.1 -654"/>
                <polygon class="st23" points="782.2 -654 704.5 -731.7 626.9 -654 593.5 -620.6 626.9 -587.2 704.5 -509.5 782.2 -587.2 748.8 -620.6 782.2 -654"/>
                <polygon class="st26" points="954.3 -654 876.7 -731.7 799 -654 765.6 -620.6 799 -587.2 876.7 -509.5 954.3 -587.2 920.9 -620.6 954.3 -654"/>
                <polygon class="st26" points="1126.4 -654 1048.8 -731.7 971.1 -654 937.7 -620.6 971.1 -587.2 1048.8 -509.5 1126.4 -587.2 1093 -620.6 1126.4 -654"/>
                <polygon class="st3" points="1298.7 -654 1221.1 -731.7 1143.4 -654 1110 -620.6 1143.4 -587.2 1221.1 -509.5 1298.7 -587.2 1265.3 -620.6 1298.7 -654"/>
                <polygon class="st19" points="1471.1 -654 1393.4 -731.7 1315.7 -654 1282.3 -620.6 1315.7 -587.2 1393.4 -509.5 1471.1 -587.2 1437.6 -620.6 1471.1 -654"/>
                <polygon class="st20" points="1643.4 -654 1565.7 -731.7 1488 -654 1454.6 -620.6 1488 -587.2 1565.7 -509.5 1643.4 -587.2 1610 -620.6 1643.4 -654"/>
                <polygon class="st1" points="1815.7 -654 1738 -731.7 1660.3 -654 1626.9 -620.6 1660.3 -587.2 1738 -509.5 1815.7 -587.2 1782.3 -620.6 1815.7 -654"/>
              </g>
              <polygon class="st8" points="1993.6 -654 1916 -731.7 1838.3 -654 1804.9 -620.6 1838.3 -587.2 1916 -509.5 1993.6 -587.2 1960.2 -620.6 1993.6 -654"/>
            </g>
            <g class="st18">
              <g>
                <polygon class="st5" points="183.2 -1124.6 105.6 -1202.2 -5.5 -1091.2 105.6 -980.1 183.2 -1057.8 149.8 -1091.2 183.2 -1124.6"/>
                <polygon class="st5" points="355.3 -1124.6 277.7 -1202.2 200 -1124.6 166.6 -1091.2 200 -1057.8 277.7 -980.1 355.3 -1057.8 321.9 -1091.2 355.3 -1124.6"/>
                <polygon class="st21" points="527.4 -1124.6 449.8 -1202.2 372.1 -1124.6 338.7 -1091.2 372.1 -1057.8 449.8 -980.1 527.4 -1057.8 494 -1091.2 527.4 -1124.6"/>
                <polygon class="st25" points="699.6 -1124.6 621.9 -1202.2 544.2 -1124.6 510.8 -1091.2 544.2 -1057.8 621.9 -980.1 699.6 -1057.8 666.2 -1091.2 699.6 -1124.6"/>
                <polygon class="st23" points="871.7 -1124.6 794 -1202.2 716.3 -1124.6 682.9 -1091.2 716.3 -1057.8 794 -980.1 871.7 -1057.8 838.3 -1091.2 871.7 -1124.6"/>
                <polygon class="st26" points="1043.8 -1124.6 966.1 -1202.2 888.5 -1124.6 855.1 -1091.2 888.5 -1057.8 966.1 -980.1 1043.8 -1057.8 1010.4 -1091.2 1043.8 -1124.6"/>
                <polygon class="st26" points="1215.9 -1124.6 1138.2 -1202.2 1060.6 -1124.6 1027.2 -1091.2 1060.6 -1057.8 1138.2 -980.1 1215.9 -1057.8 1182.5 -1091.2 1215.9 -1124.6"/>
                <polygon class="st3" points="1388.2 -1124.6 1310.5 -1202.2 1232.9 -1124.6 1199.5 -1091.2 1232.9 -1057.8 1310.5 -980.1 1388.2 -1057.8 1354.8 -1091.2 1388.2 -1124.6"/>
                <polygon class="st19" points="1560.5 -1124.6 1482.9 -1202.2 1405.2 -1124.6 1371.8 -1091.2 1405.2 -1057.8 1482.9 -980.1 1560.5 -1057.8 1527.1 -1091.2 1560.5 -1124.6"/>
                <polygon class="st20" points="1732.8 -1124.6 1655.2 -1202.2 1577.5 -1124.6 1544.1 -1091.2 1577.5 -1057.8 1655.2 -980.1 1732.8 -1057.8 1699.4 -1091.2 1732.8 -1124.6"/>
                <polygon class="st1" points="1905.1 -1124.6 1827.5 -1202.2 1749.8 -1124.6 1716.4 -1091.2 1749.8 -1057.8 1827.5 -980.1 1905.1 -1057.8 1871.7 -1091.2 1905.1 -1124.6"/>
              </g>
              <g>
                <polygon class="st5" points="93.8 -968.8 16.1 -1046.5 -95 -935.4 16.1 -824.3 93.8 -902 60.3 -935.4 93.8 -968.8"/>
                <polygon class="st5" points="265.9 -968.8 188.2 -1046.5 110.5 -968.8 77.1 -935.4 110.5 -902 188.2 -824.3 265.9 -902 232.5 -935.4 265.9 -968.8"/>
                <polygon class="st21" points="438 -968.8 360.3 -1046.5 282.7 -968.8 249.2 -935.4 282.7 -902 360.3 -824.3 438 -902 404.6 -935.4 438 -968.8"/>
                <polygon class="st25" points="610.1 -968.8 532.4 -1046.5 454.8 -968.8 421.4 -935.4 454.8 -902 532.4 -824.3 610.1 -902 576.7 -935.4 610.1 -968.8"/>
                <polygon class="st23" points="782.2 -968.8 704.5 -1046.5 626.9 -968.8 593.5 -935.4 626.9 -902 704.5 -824.3 782.2 -902 748.8 -935.4 782.2 -968.8"/>
                <polygon class="st26" points="954.3 -968.8 876.7 -1046.5 799 -968.8 765.6 -935.4 799 -902 876.7 -824.3 954.3 -902 920.9 -935.4 954.3 -968.8"/>
                <polygon class="st26" points="1126.4 -968.8 1048.8 -1046.5 971.1 -968.8 937.7 -935.4 971.1 -902 1048.8 -824.3 1126.4 -902 1093 -935.4 1126.4 -968.8"/>
                <polygon class="st3" points="1298.7 -968.8 1221.1 -1046.5 1143.4 -968.8 1110 -935.4 1143.4 -902 1221.1 -824.3 1298.7 -902 1265.3 -935.4 1298.7 -968.8"/>
                <polygon class="st19" points="1471.1 -968.8 1393.4 -1046.5 1315.7 -968.8 1282.3 -935.4 1315.7 -902 1393.4 -824.3 1471.1 -902 1437.6 -935.4 1471.1 -968.8"/>
                <polygon class="st20" points="1643.4 -968.8 1565.7 -1046.5 1488 -968.8 1454.6 -935.4 1488 -902 1565.7 -824.3 1643.4 -902 1610 -935.4 1643.4 -968.8"/>
                <polygon class="st1" points="1815.7 -968.8 1738 -1046.5 1660.3 -968.8 1626.9 -935.4 1660.3 -902 1738 -824.3 1815.7 -902 1782.3 -935.4 1815.7 -968.8"/>
              </g>
              <polygon class="st8" points="1993.6 -968.8 1916 -1046.5 1838.3 -968.8 1804.9 -935.4 1838.3 -902 1916 -824.3 1993.6 -902 1960.2 -935.4 1993.6 -968.8"/>
            </g>
            <g class="st17">
              <g>
                <polygon class="st5" points="183.2 -1439.4 105.6 -1517 -5.5 -1406 105.6 -1294.9 183.2 -1372.5 149.8 -1406 183.2 -1439.4"/>
                <polygon class="st5" points="355.3 -1439.4 277.7 -1517 200 -1439.4 166.6 -1406 200 -1372.5 277.7 -1294.9 355.3 -1372.5 321.9 -1406 355.3 -1439.4"/>
                <polygon class="st21" points="527.4 -1439.4 449.8 -1517 372.1 -1439.4 338.7 -1406 372.1 -1372.5 449.8 -1294.9 527.4 -1372.5 494 -1406 527.4 -1439.4"/>
                <polygon class="st25" points="699.6 -1439.4 621.9 -1517 544.2 -1439.4 510.8 -1406 544.2 -1372.5 621.9 -1294.9 699.6 -1372.5 666.2 -1406 699.6 -1439.4"/>
                <polygon class="st23" points="871.7 -1439.4 794 -1517 716.3 -1439.4 682.9 -1406 716.3 -1372.5 794 -1294.9 871.7 -1372.5 838.3 -1406 871.7 -1439.4"/>
                <polygon class="st26" points="1043.8 -1439.4 966.1 -1517 888.5 -1439.4 855.1 -1406 888.5 -1372.5 966.1 -1294.9 1043.8 -1372.5 1010.4 -1406 1043.8 -1439.4"/>
                <polygon class="st26" points="1215.9 -1439.4 1138.2 -1517 1060.6 -1439.4 1027.2 -1406 1060.6 -1372.5 1138.2 -1294.9 1215.9 -1372.5 1182.5 -1406 1215.9 -1439.4"/>
                <polygon class="st3" points="1388.2 -1439.4 1310.5 -1517 1232.9 -1439.4 1199.5 -1406 1232.9 -1372.5 1310.5 -1294.9 1388.2 -1372.5 1354.8 -1406 1388.2 -1439.4"/>
                <polygon class="st19" points="1560.5 -1439.4 1482.9 -1517 1405.2 -1439.4 1371.8 -1406 1405.2 -1372.5 1482.9 -1294.9 1560.5 -1372.5 1527.1 -1406 1560.5 -1439.4"/>
                <polygon class="st20" points="1732.8 -1439.4 1655.2 -1517 1577.5 -1439.4 1544.1 -1406 1577.5 -1372.5 1655.2 -1294.9 1732.8 -1372.5 1699.4 -1406 1732.8 -1439.4"/>
                <polygon class="st1" points="1905.1 -1439.4 1827.5 -1517 1749.8 -1439.4 1716.4 -1406 1749.8 -1372.5 1827.5 -1294.9 1905.1 -1372.5 1871.7 -1406 1905.1 -1439.4"/>
              </g>
              <g>
                <polygon class="st5" points="93.8 -1283.6 16.1 -1361.3 -95 -1250.2 16.1 -1139.1 93.8 -1216.8 60.3 -1250.2 93.8 -1283.6"/>
                <polygon class="st5" points="265.9 -1283.6 188.2 -1361.3 110.5 -1283.6 77.1 -1250.2 110.5 -1216.8 188.2 -1139.1 265.9 -1216.8 232.5 -1250.2 265.9 -1283.6"/>
                <polygon class="st21" points="438 -1283.6 360.3 -1361.3 282.7 -1283.6 249.2 -1250.2 282.7 -1216.8 360.3 -1139.1 438 -1216.8 404.6 -1250.2 438 -1283.6"/>
                <polygon class="st25" points="610.1 -1283.6 532.4 -1361.3 454.8 -1283.6 421.4 -1250.2 454.8 -1216.8 532.4 -1139.1 610.1 -1216.8 576.7 -1250.2 610.1 -1283.6"/>
                <polygon class="st23" points="782.2 -1283.6 704.5 -1361.3 626.9 -1283.6 593.5 -1250.2 626.9 -1216.8 704.5 -1139.1 782.2 -1216.8 748.8 -1250.2 782.2 -1283.6"/>
                <polygon class="st26" points="954.3 -1283.6 876.7 -1361.3 799 -1283.6 765.6 -1250.2 799 -1216.8 876.7 -1139.1 954.3 -1216.8 920.9 -1250.2 954.3 -1283.6"/>
                <polygon class="st26" points="1126.4 -1283.6 1048.8 -1361.3 971.1 -1283.6 937.7 -1250.2 971.1 -1216.8 1048.8 -1139.1 1126.4 -1216.8 1093 -1250.2 1126.4 -1283.6"/>
                <polygon class="st3" points="1298.7 -1283.6 1221.1 -1361.3 1143.4 -1283.6 1110 -1250.2 1143.4 -1216.8 1221.1 -1139.1 1298.7 -1216.8 1265.3 -1250.2 1298.7 -1283.6"/>
                <polygon class="st19" points="1471.1 -1283.6 1393.4 -1361.3 1315.7 -1283.6 1282.3 -1250.2 1315.7 -1216.8 1393.4 -1139.1 1471.1 -1216.8 1437.6 -1250.2 1471.1 -1283.6"/>
                <polygon class="st20" points="1643.4 -1283.6 1565.7 -1361.3 1488 -1283.6 1454.6 -1250.2 1488 -1216.8 1565.7 -1139.1 1643.4 -1216.8 1610 -1250.2 1643.4 -1283.6"/>
                <polygon class="st1" points="1815.7 -1283.6 1738 -1361.3 1660.3 -1283.6 1626.9 -1250.2 1660.3 -1216.8 1738 -1139.1 1815.7 -1216.8 1782.3 -1250.2 1815.7 -1283.6"/>
              </g>
              <polygon class="st8" points="1993.6 -1283.6 1916 -1361.3 1838.3 -1283.6 1804.9 -1250.2 1838.3 -1216.8 1916 -1139.1 1993.6 -1216.8 1960.2 -1250.2 1993.6 -1283.6"/>
            </g>
          </g>
        </g>
      </g>
      <rect class="st4" x="-4.7" y="256.2" width="1591.4" height="223.3"/>
      <g>
        <g>
          <g>
            <path class="st2" d="M315.2,367h-8.9v-11h29.7v11h-9v40.3h-11.8v-40.3Z"/>
            <path class="st2" d="M364,385.5h-11.2v11.6h12.6v10.2h-24.3v-51.3h23.5v10.2h-11.7v9.6h11.2v9.7Z"/>
            <path class="st2" d="M372.4,356h11.8v41.3h12.6v10h-24.3v-51.3Z"/>
            <path class="st2" d="M425.4,385.5h-11.2v11.6h12.6v10.2h-24.3v-51.3h23.5v10.2h-11.7v9.6h11.2v9.7Z"/>
            <path class="st2" d="M433.8,356h23.5v10.2h-11.7v11.1h11v9.7h-11v20.2h-11.8v-51.3Z"/>
            <path class="st2" d="M496.8,380.5c0,19.4-7,27.4-17.3,27.4s-17-13.7-17-26.4,5.3-26.1,17.7-26.1,16.7,15.4,16.7,25.1ZM474.7,381.6c0,12.1,2.2,16,5.2,16s4.7-6.1,4.7-16.6-1.2-15.5-4.8-15.5-5.1,4.8-5.1,16ZM492.5,344.5l-9.2,8.7h-8.1l5.9-8.7h11.5Z"/>
            <path class="st2" d="M502.8,407.3v-51.3h10.7l7.2,18.4c1.3,3.3,3.7,9.7,5,13.7h.2c-.3-4.2-1.1-14.1-1.1-23.8v-8.3h10.3v51.3h-10.7l-6.9-17.3c-1.6-4-4-10.7-4.9-14.5h-.2c.2,4.4.7,12.9.7,23v8.8h-10.3Z"/>
            <path class="st2" d="M555.6,356v51.3h-11.8v-51.3h11.8Z"/>
            <path class="st2" d="M589.7,406.6c-1.4.6-4.3,1.1-7.8,1.1-14.5,0-20.3-11.9-20.3-25.3,0-18.9,11-26.9,21.8-26.9s6.2.8,7.2,1.4l-1.8,9.9c-1.1-.5-2.4-1-4.4-1-5.8,0-10.3,4.7-10.3,16.1s4.2,15.4,10.1,15.4,3.3-.3,4.6-.6l1,9.9Z"/>
            <path class="st2" d="M625.9,380.5c0,19.4-7,27.4-17.3,27.4s-17-13.7-17-26.4,5.3-26.1,17.7-26.1,16.7,15.4,16.7,25.1ZM603.8,381.6c0,12.1,2.2,16,5.2,16s4.7-6.1,4.7-16.6-1.2-15.5-4.8-15.5-5.1,4.8-5.1,16Z"/>
          </g>
          <g>
            <path class="st2" d="M309.2,317.4c1.4-.3,3-.5,4.8-.5,3.4,0,5.9.9,7.5,2.5,1.7,1.7,2.8,4.2,2.8,8s-1,6.6-2.7,8.6c-1.8,2-4.7,3.1-8.3,3.1s-2.8,0-4.1-.2v-21.5ZM310.7,337.7c.8.1,1.8.1,2.8.1,5.9,0,9.3-3.3,9.3-10.3,0-5.7-2.7-9.3-8.9-9.3s-2.4.1-3.2.3v19.2Z"/>
            <path class="st2" d="M348.9,317.1v21.9h-1.5v-21.9h1.5Z"/>
            <path class="st2" d="M373.3,317.4c1.2-.3,2.8-.5,4.2-.5,2.6,0,4.3.6,5.4,1.7.9.9,1.5,2.4,1.5,4,0,3-1.6,4.8-4.1,5.7h0c1.7.6,2.8,2.2,3.3,4.9.7,3.4,1.1,4.9,1.5,5.7h-1.5c-.3-.6-.8-2.6-1.3-5.4-.6-3.2-1.9-4.6-4.7-4.6h-2.8v10h-1.5v-21.6ZM374.8,327.7h2.8c3.2,0,5.3-1.9,5.3-4.8s-2.1-4.7-5.4-4.7-2.1.1-2.7.2v9.3Z"/>
            <path class="st2" d="M417.2,328.1h-7.9v9.6h8.8v1.3h-10.3v-21.9h9.8v1.3h-8.3v8.4h7.9v1.3Z"/>
            <path class="st2" d="M454.2,338.3c-1,.5-2.8,1-5,1-4.7,0-9.3-3.2-9.3-11.1s4.2-11.4,9.9-11.4,3.7.5,4.3.8l-.5,1.3c-.9-.5-2.2-.8-3.9-.8-4.8,0-8.3,3.4-8.3,10s3.2,9.8,8.1,9.8,3.2-.3,4.2-.9l.4,1.2Z"/>
            <path class="st2" d="M481.6,318.3h-6.2v-1.3h13.9v1.3h-6.2v20.6h-1.5v-20.6Z"/>
            <path class="st2" d="M525.9,327.9c0,7.8-4.1,11.4-8.6,11.4s-8.3-3.9-8.3-11.1,3.9-11.4,8.6-11.4,8.3,3.9,8.3,11.1ZM510.5,328.1c0,4.7,2.3,9.9,6.9,9.9s6.9-5,6.9-10.1-2-9.9-6.9-9.9-6.9,5.2-6.9,10.1Z"/>
            <path class="st2" d="M549,317.4c1.2-.3,2.8-.5,4.2-.5,2.6,0,4.3.6,5.4,1.7.9.9,1.5,2.4,1.5,4,0,3-1.6,4.8-4.1,5.7h0c1.7.6,2.8,2.2,3.3,4.9.7,3.4,1.1,4.9,1.5,5.7h-1.5c-.3-.6-.8-2.6-1.3-5.4-.6-3.2-1.9-4.6-4.7-4.6h-2.8v10h-1.5v-21.6ZM550.5,327.7h2.8c3.2,0,5.3-1.9,5.3-4.8s-2.1-4.7-5.4-4.7-2.1.1-2.7.2v9.3Z"/>
            <path class="st2" d="M585.1,317.1v21.9h-1.5v-21.9h1.5Z"/>
            <path class="st2" d="M625.2,327.9c0,7.8-4.1,11.4-8.6,11.4s-8.3-3.9-8.3-11.1,3.9-11.4,8.6-11.4,8.3,3.9,8.3,11.1ZM609.8,328.1c0,4.7,2.3,9.9,6.9,9.9s6.9-5,6.9-10.1-2-9.9-6.9-9.9-6.9,5.2-6.9,10.1Z"/>
          </g>
          <rect class="st2" x="647.3" y="290.7" width="11.6" height="141.2"/>
        </g>
        <g>
          <path class="st2" d="M972.4,201.9h274c16.5,0,30,13.4,30,30v288.1c0,16.5-13.4,30-30,30h-274c-16.5,0-30-13.4-30-30V231.8c0-16.5,13.4-30,30-30Z"/>
          <rect class="st23" x="1080.3" y="232.7" width="166.5" height="80.1"/>
          <path class="st23" d="M1045.6,293.5h0c.5-1.9.7-3.8.7-5.8v-31.3c0-13-10.7-23.7-23.7-23.7h-32.1c-13,0-23.7,10.7-23.7,23.7v31.3c0,2,.3,3.9.7,5.8h0c.2.8.5,1.6.7,2.4,1.1,3.8,2.9,11.6,2.7,20.2v125.6c.2,8.6-1.7,16.5-2.7,20.2-.3.8-.5,1.6-.7,2.4h0c-.5,1.9-.7,3.8-.7,5.8v31.3c0,13,10.7,23.7,23.7,23.7h32.1c13,0,23.7-10.7,23.7-23.7v-31.3c0-2-.3-3.9-.7-5.8h0c-.2-.8-.5-1.6-.7-2.4-1.1-3.8-2.9-11.6-2.7-20.2v-125.6c-.2-8.6,1.7-16.5,2.7-20.2.3-.8.5-1.6.7-2.4Z"/>
          <path class="st23" d="M1120.6,342.7h-32.3c-4.4,0-8,4.6-8,10.3h0c0,5.7,3.6,10.3,8,10.3h32.3c4.4,0,8-4.6,8-10.3h0c0-5.7-3.6-10.3-8-10.3Z"/>
          <path class="st23" d="M1179.7,342.7h-32.3c-4.4,0-8,4.6-8,10.3h0c0,5.7,3.6,10.3,8,10.3h32.3c4.4,0,8-4.6,8-10.3h0c0-5.7-3.6-10.3-8-10.3Z"/>
          <path class="st23" d="M1238.8,342.7h-32.3c-4.4,0-8,4.6-8,10.3h0c0,5.7,3.6,10.3,8,10.3h32.3c4.4,0,8-4.6,8-10.3h0c0-5.7-3.6-10.3-8-10.3Z"/>
          <path class="st23" d="M1120.6,387.8h-32.3c-4.4,0-8,4.6-8,10.3h0c0,5.7,3.6,10.3,8,10.3h32.3c4.4,0,8-4.6,8-10.3h0c0-5.7-3.6-10.3-8-10.3Z"/>
          <path class="st23" d="M1179.7,387.8h-32.3c-4.4,0-8,4.6-8,10.3h0c0,5.7,3.6,10.3,8,10.3h32.3c4.4,0,8-4.6,8-10.3h0c0-5.7-3.6-10.3-8-10.3Z"/>
          <path class="st23" d="M1238.8,387.8h-32.3c-4.4,0-8,4.6-8,10.3h0c0,5.7,3.6,10.3,8,10.3h32.3c4.4,0,8-4.6,8-10.3h0c0-5.7-3.6-10.3-8-10.3Z"/>
          <path class="st23" d="M1120.6,433h-32.3c-4.4,0-8,4.6-8,10.3h0c0,5.7,3.6,10.3,8,10.3h32.3c4.4,0,8-4.6,8-10.3h0c0-5.7-3.6-10.3-8-10.3Z"/>
          <path class="st23" d="M1179.7,433h-32.3c-4.4,0-8,4.6-8,10.3h0c0,5.7,3.6,10.3,8,10.3h32.3c4.4,0,8-4.6,8-10.3h0c0-5.7-3.6-10.3-8-10.3Z"/>
          <path class="st23" d="M1238.8,433h-32.3c-4.4,0-8,4.6-8,10.3h0c0,5.7,3.6,10.3,8,10.3h32.3c4.4,0,8-4.6,8-10.3h0c0-5.7-3.6-10.3-8-10.3Z"/>
          <rect class="st23" x="1080.3" y="478.1" width="48.3" height="20.6" rx="8.3" ry="8.3"/>
          <path class="st23" d="M1179.7,478.1h-32.3c-4.4,0-8,4.6-8,10.3h0c0,5.7,3.6,10.3,8,10.3h32.3c4.4,0,8-4.6,8-10.3h0c0-5.7-3.6-10.3-8-10.3Z"/>
          <rect class="st23" x="1198.5" y="478.1" width="48.3" height="20.6" rx="8.3" ry="8.3"/>
          <path class="st2" d="M1223.2,168.5h0c-9.1,0-16.5,7.4-16.5,16.5v27.8c0,9.1,7.4,16.5,16.5,16.5s16.5-7.4,16.5-16.5v-27.8c0-9.1-7.4-16.5-16.5-16.5Z"/>
        </g>
      </g>
      <g>
        <path class="st2" d="M684.8,381.7v-8.8l5.8-7.2c7.3-9,12.2-15.3,12.2-22s-2.3-6.5-6.6-6.5-6,1.3-8.3,2.6l-2.1-10.1c2.8-1.7,7.8-3.3,12.7-3.3,13.2,0,17,8.5,17,16.2s-6.3,17.6-12.3,24.1l-3.1,3.4v.2h16v11.4h-31.3Z"/>
        <path class="st2" d="M755.6,354.1c0,19.4-7.5,28.2-16.7,28.2-13.3,0-16.8-15.2-16.8-27.6s4.8-28.2,17.1-28.2,16.4,16.5,16.4,27.6ZM735,354.4c-.2,12.6,1.1,16.8,4.1,16.8s3.4-4.6,3.4-16.8-.7-16.8-3.4-16.8-4.2,4.4-4.1,16.8Z"/>
        <path class="st2" d="M759.2,381.7v-8.8l5.8-7.2c7.3-9,12.2-15.3,12.2-22s-2.3-6.5-6.6-6.5-6,1.3-8.3,2.6l-2.1-10.1c2.8-1.7,7.8-3.3,12.7-3.3,13.2,0,17,8.5,17,16.2s-6.3,17.6-12.3,24.1l-3.1,3.4v.2h16v11.4h-31.3Z"/>
        <path class="st2" d="M826.4,338.4h-14.3l-.8,7.7h1.5c2.1,0,7,1.1,10.2,4.1,3.1,2.9,4.8,7.1,4.8,12.6,0,10.5-7.1,19.5-20,19.5s-8.5-1-10.6-2.1l1.8-10.2c2.2,1,4.9,1.8,7.9,1.8,5.4,0,8.3-3.1,8.3-7.8,0-6.8-5.6-8.7-11.6-8.7s-2.6,0-3.8.2l2.8-28.2h23.9v11.2Z"/>
      </g>
    </g>
  </g>
</svg>