<?xml version="1.0" encoding="UTF-8"?>
<!DOCTYPE svg PUBLIC "-//W3C//DTD SVG 1.1//EN" "http://www.w3.org/Graphics/SVG/1.1/DTD/svg11.dtd">
<!-- Creator: CorelDRAW 2018 -->
<svg xmlns="http://www.w3.org/2000/svg" xml:space="preserve" width="27.1687mm" height="11.9152mm" version="1.1" style="shape-rendering:geometricPrecision; text-rendering:geometricPrecision; image-rendering:optimizeQuality; fill-rule:evenodd; clip-rule:evenodd"
viewBox="0 0 611.6 268.22"
 xmlns:xlink="http://www.w3.org/1999/xlink">
 <defs>
  <style type="text/css">
   <![CDATA[
    .fil0 {fill:black;fill-rule:nonzero}
   ]]>
  </style>
 </defs>
 <g id="Capa_x0020_1">
  <metadata id="CorelCorpID_0Corel-Layer"/>
  <path class="fil0" d="M134.11 0l343.38 0c36.89,0 70.42,15.09 94.72,39.39 24.31,24.31 39.39,57.84 39.39,94.72 0,36.89 -15.08,70.42 -39.39,94.72 -24.3,24.3 -57.83,39.39 -94.72,39.39l-343.38 0c-36.88,0 -70.41,-15.09 -94.72,-39.39 -24.3,-24.31 -39.39,-57.84 -39.39,-94.72 0,-36.89 15.09,-70.42 39.39,-94.72 24.31,-24.3 57.84,-39.39 94.72,-39.39zm165.84 64.39c19.75,0 35.76,16.01 35.76,35.76 0,9.68 -3.85,18.46 -10.1,24.9 7.37,2.55 13.76,6.89 18.34,14.55 6.29,-10.25 17.59,-17.09 30.5,-17.09 19.75,0 35.76,16.01 35.76,35.76 0,9.68 -3.85,18.46 -10.1,24.9 9.14,3.16 16.78,9.07 21.31,20.66 -28.45,0 -56.91,0 -85.36,0 0.08,-7.89 5.77,-13.67 15.84,-17.81 -8.06,-6.56 -13.21,-16.55 -13.21,-27.75 0,-4.42 0.8,-8.65 2.27,-12.56l-78.92 0c1.47,3.91 2.27,8.14 2.27,12.56 0,9.68 -3.85,18.46 -10.1,24.9 9.13,3.16 16.78,9.07 21.31,20.66 -28.45,0 -56.91,0 -85.36,0 0.08,-7.89 5.77,-13.67 15.84,-17.81 -8.06,-6.56 -13.21,-16.55 -13.21,-27.75 0,-19.75 16.01,-35.76 35.76,-35.76 14.92,0 27.7,9.13 33.06,22.11 0.57,-7.33 6.19,-12.77 15.79,-16.71 -8.06,-6.56 -13.21,-16.55 -13.21,-27.75 0,-19.75 16.01,-35.76 35.76,-35.76zm-179.91 189.77l0 -18.26c-23.49,-2.72 -44.62,-13.48 -60.57,-29.42 -14.32,-14.33 -24.46,-32.85 -28.34,-53.5l-16.41 0c4.08,25.72 16.35,48.81 34.03,66.49 18.77,18.77 43.65,31.45 71.29,34.69zm11.03 -17.58l0 18.37c1.01,0.02 2.02,0.04 3.04,0.04l343.38 0c1.43,0 2.85,-0.03 4.27,-0.08l0 -18.35c-0.66,0.01 -1.33,0.02 -2,0.02l-347.91 0c-0.26,0 -0.52,-0 -0.77,-0zm-11.03 -204.25l0 -18.26c-27.64,3.24 -52.51,15.91 -71.29,34.69 -17.93,17.93 -30.3,41.43 -34.2,67.6l16.37 0c3.73,-21.1 13.96,-40.03 28.54,-54.61 15.94,-15.94 37.08,-26.69 60.57,-29.42zm11.03 -19.05l0 18.37c0.26,-0 0.52,-0 0.77,-0l347.91 0c0.67,0 1.33,0.01 2,0.02l0 -18.35c-1.42,-0.05 -2.84,-0.08 -4.27,-0.08l-343.38 0c-1.02,0 -2.03,0.01 -3.04,0.04zm-117.41 130.88l16.21 0c-0.32,-3.3 -0.49,-6.65 -0.49,-10.04 0,-3.01 0.13,-5.99 0.39,-8.94l-16.19 0c-0.22,2.95 -0.33,5.93 -0.33,8.94 0,3.38 0.14,6.73 0.42,10.04zm568.07 0l16.21 0c0.28,-3.31 0.42,-6.66 0.42,-10.04 0,-3.01 -0.11,-5.99 -0.33,-8.94l-16.2 0c0.26,2.95 0.39,5.93 0.39,8.94 0,3.39 -0.17,6.74 -0.5,10.04zm15.15 8.83l-16.41 0c-3.88,20.66 -14.02,39.18 -28.34,53.5 -15.66,15.66 -36.34,26.32 -59.34,29.27l0 18.26c27.15,-3.47 51.57,-16.05 70.06,-34.54 17.68,-17.68 29.95,-40.77 34.03,-66.49zm-16.2 -36.63l16.37 0c-3.9,-26.16 -16.26,-49.66 -34.19,-67.6 -18.5,-18.5 -42.91,-31.07 -70.06,-34.54l0 18.26c23,2.95 43.68,13.6 59.34,29.27 14.58,14.58 24.82,33.51 28.55,54.61zm-100.92 -78.09l-347.91 0c-26.35,0 -50.32,10.79 -67.69,28.16 -17.37,17.37 -28.16,41.33 -28.16,67.69 0,26.36 10.79,50.32 28.16,67.69 17.37,17.37 41.34,28.16 67.69,28.16l347.91 0c26.35,0 50.32,-10.79 67.69,-28.16 17.37,-17.37 28.16,-41.34 28.16,-67.69 0,-26.36 -10.79,-50.32 -28.16,-67.69 -17.37,-17.38 -41.34,-28.16 -67.69,-28.16z"/>
 </g>
</svg>
