<?xml version="1.0" encoding="UTF-8"?>
<!DOCTYPE svg PUBLIC "-//W3C//DTD SVG 1.1//EN" "http://www.w3.org/Graphics/SVG/1.1/DTD/svg11.dtd">
<!-- Creator: CorelDRAW 2018 -->
<svg xmlns="http://www.w3.org/2000/svg" xml:space="preserve" width="27.1687mm" height="11.9152mm" version="1.1" style="shape-rendering:geometricPrecision; text-rendering:geometricPrecision; image-rendering:optimizeQuality; fill-rule:evenodd; clip-rule:evenodd"
viewBox="0 0 407.17 178.57"
 xmlns:xlink="http://www.w3.org/1999/xlink">
 <defs>
  <style type="text/css">
   <![CDATA[
    .fil0 {fill:black;fill-rule:nonzero}
   ]]>
  </style>
 </defs>
 <g id="Capa_x0020_1">
  <metadata id="CorelCorpID_0Corel-Layer"/>
  <path class="fil0" d="M89.28 0l228.61 0c24.56,0 46.88,10.04 63.06,26.22 16.18,16.18 26.22,38.5 26.22,63.06 0,24.56 -10.04,46.88 -26.22,63.06 -16.18,16.18 -38.5,26.22 -63.06,26.22l-228.61 0c-24.56,0 -46.88,-10.04 -63.06,-26.22 -16.18,-16.18 -26.22,-38.5 -26.22,-63.06 0,-24.56 10.04,-46.88 26.22,-63.06 16.18,-16.18 38.5,-26.22 63.06,-26.22zm-9.37 169.21l0 -12.16c-15.64,-1.81 -29.71,-8.97 -40.32,-19.58 -9.54,-9.54 -16.28,-21.87 -18.87,-35.62l-10.92 0c2.72,17.12 10.88,32.5 22.65,44.27 12.5,12.5 29.06,20.94 47.46,23.09zm7.35 -11.71l0 12.23c0.67,0.02 1.35,0.03 2.02,0.03l228.61 0c0.95,0 1.9,-0.02 2.84,-0.05l0 -12.22c-0.44,0.01 -0.89,0.01 -1.33,0.01l-231.62 0c-0.17,0 -0.34,-0 -0.51,-0zm-7.35 -135.98l0 -12.16c-18.4,2.16 -34.96,10.6 -47.46,23.09 -11.94,11.94 -20.17,27.58 -22.77,45l10.9 0c2.48,-14.05 9.3,-26.65 19,-36.36 10.61,-10.61 24.68,-17.77 40.32,-19.58zm7.35 -12.68l0 12.23c0.17,-0 0.34,-0 0.51,-0l231.62 0c0.45,0 0.89,0.01 1.33,0.01l0 -12.22c-0.94,-0.03 -1.89,-0.05 -2.84,-0.05l-228.61 0c-0.68,0 -1.35,0.01 -2.02,0.03zm-78.17 87.13l10.79 0c-0.22,-2.2 -0.33,-4.43 -0.33,-6.69 0,-2 0.09,-3.99 0.26,-5.95l-10.78 0c-0.15,1.96 -0.22,3.95 -0.22,5.95 0,2.25 0.09,4.48 0.28,6.69zm378.2 0l10.79 0c0.18,-2.21 0.28,-4.43 0.28,-6.69 0,-2 -0.07,-3.98 -0.22,-5.95l-10.78 0c0.17,1.96 0.26,3.95 0.26,5.95 0,2.26 -0.11,4.49 -0.33,6.69zm10.08 5.87l-10.92 0c-2.59,13.75 -9.33,26.08 -18.87,35.62 -10.43,10.43 -24.19,17.52 -39.51,19.48l0 12.16c18.08,-2.31 34.33,-10.68 46.64,-23 11.77,-11.77 19.94,-27.14 22.65,-44.27zm-10.79 -24.39l10.9 0c-2.59,-17.42 -10.83,-33.06 -22.77,-45 -12.31,-12.31 -28.57,-20.68 -46.64,-23l0 12.16c15.31,1.96 29.08,9.06 39.51,19.48 9.71,9.71 16.52,22.31 19,36.36zm-67.18 -51.99l-231.62 0c-17.55,0 -33.5,7.18 -45.07,18.75 -11.57,11.57 -18.75,27.52 -18.75,45.07 0,17.55 7.18,33.5 18.75,45.07 11.57,11.57 27.52,18.75 45.07,18.75l231.62 0c17.55,0 33.5,-7.18 45.07,-18.75 11.57,-11.57 18.75,-27.52 18.75,-45.07 0,-17.55 -7.18,-33.5 -18.75,-45.07 -11.57,-11.57 -27.52,-18.75 -45.07,-18.75zm-169.92 72.12c-3.01,2.37 -7.38,1.85 -9.75,-1.17 -2.37,-3.01 -1.85,-7.38 1.17,-9.75l60.68 -47.8c2.72,-2.14 6.54,-1.92 9,0.36l55.88 47.19c2.92,2.47 3.29,6.85 0.81,9.78 -2.47,2.92 -6.85,3.29 -9.78,0.82l-51.78 -43.72 -56.25 44.3zm44.29 43.59l-33.25 -0.42 0 -43.23 45.72 -34.5 46.14 36.58 0 40.73 -34.08 0 0 -29.09 -24.52 0 0 29.93z"/>
 </g>
</svg>
