<?xml version="1.0" encoding="UTF-8"?>
<!DOCTYPE svg PUBLIC "-//W3C//DTD SVG 1.1//EN" "http://www.w3.org/Graphics/SVG/1.1/DTD/svg11.dtd">
<!-- Creator: CorelDRAW 2018 -->
<svg xmlns="http://www.w3.org/2000/svg" xml:space="preserve" width="56.8295mm" height="56.8297mm" version="1.1" style="shape-rendering:geometricPrecision; text-rendering:geometricPrecision; image-rendering:optimizeQuality; fill-rule:evenodd; clip-rule:evenodd"
viewBox="0 0 5470.71 5470.73"
 xmlns:xlink="http://www.w3.org/1999/xlink">
 <defs>
  <style type="text/css">
   <![CDATA[
    .fil1 {fill:black}
    .fil0 {fill:black;fill-rule:nonzero}
   ]]>
  </style>
 </defs>
 <g id="Capa_x0020_1">
  <metadata id="CorelCorpID_0Corel-Layer"/>
  <path class="fil0" d="M2735.36 0.01c755.33,0 1439.18,306.19 1934.17,801.19 495.01,495 801.19,1178.86 801.19,1934.17 0,755.31 -306.18,1439.19 -801.19,1934.18 -495,494.98 -1178.85,801.18 -1934.17,801.18 -755.32,0 -1439.18,-306.18 -1934.17,-801.18 -495,-495 -801.2,-1178.86 -801.2,-1934.18 0,-755.32 306.2,-1439.19 801.2,-1934.18 495,-495 1178.86,-801.18 1934.17,-801.18zm1854.18 881.19c-474.51,-474.5 -1130.08,-768.02 -1854.18,-768.02 -724.1,0 -1379.67,293.5 -1854.17,768.01 -474.51,474.51 -768.03,1130.09 -768.03,1854.19 0,724.11 293.52,1379.68 768.03,1854.18 474.5,474.5 1130.07,768.01 1854.17,768.01 724.1,0 1379.67,-293.52 1854.18,-768.01 474.5,-474.5 768.01,-1130.09 768.01,-1854.18 0,-724.1 -293.5,-1379.67 -768.01,-1854.17z"/>
  <path class="fil0" d="M2735.36 1876.14c237.27,0 452.08,96.19 607.57,251.68 155.48,155.48 251.68,370.29 251.68,607.56 0,237.25 -96.2,452.09 -251.68,607.57 -155.49,155.48 -370.3,251.68 -607.57,251.68 -237.24,0 -452.08,-96.2 -607.56,-251.68 -155.49,-155.48 -251.69,-370.32 -251.69,-607.57 0,-237.27 96.2,-452.08 251.69,-607.56 155.48,-155.49 370.32,-251.68 607.56,-251.68zm500.89 358.36c-128.18,-128.17 -305.28,-207.46 -500.89,-207.46 -195.6,0 -372.71,79.29 -500.88,207.46 -128.17,128.17 -207.47,305.28 -207.47,500.88 0,195.61 79.3,372.72 207.47,500.89 128.17,128.17 305.28,207.46 500.88,207.46 195.61,0 372.71,-79.29 500.89,-207.46 128.17,-128.17 207.46,-305.28 207.46,-500.89 0,-195.6 -79.29,-372.71 -207.46,-500.88z"/>
  <circle class="fil1" cx="2735.36" cy="2735.38" r="232.24"/>
  <path class="fil1" d="M2735.39 304.63c624.92,0 1194.68,235.95 1625.33,623.47l-807.29 807.28c-222.78,-182.46 -507.62,-292.06 -818.03,-292.06 -309.78,0 -593.94,109.05 -816.5,290.75l-807.33 -807.34c430.47,-386.67 999.64,-622.11 1623.83,-622.11zm-18.18 333.15l140.75 243.8 140.74 243.81 -281.49 0 -281.53 0 140.79 -243.81 140.74 -243.8zm2147.22 2107.96l-243.8 140.79 -243.72 140.7 0 -281.49 0 -281.48 243.72 140.74 243.8 140.74zm-4255.22 39.3l243.84 -140.74 243.76 -140.79 0 281.53 0 281.53 -243.76 -140.78 -243.84 -140.75zm2147.3 2107.92l-140.78 -243.76 -140.79 -243.76 281.57 0 281.53 0 -140.78 243.76 -140.75 243.76zm1815.69 -3749.6c369.98,426.48 593.9,983.13 593.9,1592.02 0,624.19 -235.44,1193.32 -622.11,1623.8l-807.33 -807.34c181.69,-222.56 290.74,-506.72 290.74,-816.47 0,-294.35 -98.51,-565.65 -264.33,-782.95l809.12 -809.07zm-243.34 3427.46c-426.6,370.87 -983.84,595.26 -1593.46,595.26 -608.94,0 -1165.58,-223.92 -1592.06,-593.85l809.11 -809.12c217.3,165.81 488.55,264.29 782.95,264.29 295.03,0 567.01,-98.99 784.56,-265.56l808.9 808.99zm-3400.74 -210.07c-387.56,-430.68 -623.46,-1000.42 -623.46,-1625.37 0,-609.66 224.38,-1166.89 595.26,-1593.5l808.99 808.9c-166.57,217.55 -265.56,489.53 -265.56,784.6 0,310.42 109.61,595.31 292.02,818.08l-807.24 807.29zm1807.28 -3855.55c542.33,0 1039.37,193.71 1426,515.61l-573.3 573.25c-237.77,-177.96 -532.93,-283.31 -852.7,-283.31 -319.08,0 -613.65,104.88 -851.04,282.08l-573.42 -573.38c386.33,-321.05 882.86,-514.25 1424.47,-514.25zm1742.79 838.86c304.89,381.4 487.35,865.06 487.35,1391.32 0,541.57 -193.17,1038.1 -514.2,1424.43l-573.39 -573.38c177.16,-237.39 282.04,-532.01 282.04,-851.05 0,-303.61 -95.03,-584.98 -256.88,-816.21l575.08 -575.12zm-349.89 3132.84c-381.65,305.75 -865.87,488.67 -1392.9,488.67 -526.31,0 -1009.97,-182.46 -1391.37,-487.4l575.17 -575.08c231.18,161.86 512.55,256.93 816.21,256.93 304.34,0 586.34,-95.54 817.87,-258.12l575.03 574.99zm-3107.52 -315.52c-321.89,-386.58 -515.61,-883.62 -515.61,-1426 0,-527.07 182.93,-1011.29 488.67,-1392.94l574.99 575.04c-162.57,231.48 -258.12,513.52 -258.12,817.9 0,319.81 105.35,614.97 283.36,852.75l-573.3 573.25z"/>
 </g>
</svg>
