<?xml version="1.0" encoding="UTF-8"?>
<!DOCTYPE svg PUBLIC "-//W3C//DTD SVG 1.1//EN" "http://www.w3.org/Graphics/SVG/1.1/DTD/svg11.dtd">
<!-- Creator: CorelDRAW 2018 -->
<svg xmlns="http://www.w3.org/2000/svg" xml:space="preserve" width="27.168mm" height="11.9149mm" version="1.1" style="shape-rendering:geometricPrecision; text-rendering:geometricPrecision; image-rendering:optimizeQuality; fill-rule:evenodd; clip-rule:evenodd"
viewBox="0 0 2187.34 959.29"
 xmlns:xlink="http://www.w3.org/1999/xlink">
 <defs>
  <style type="text/css">
   <![CDATA[
    .fil0 {fill:black;fill-rule:nonzero}
   ]]>
  </style>
 </defs>
 <g id="Capa_x0020_1">
  <metadata id="CorelCorpID_0Corel-Layer"/>
  <path class="fil0" d="M479.63 0l1228.08 0c131.92,0 251.83,53.96 338.75,140.88 86.93,86.92 140.88,206.83 140.88,338.76 0,131.93 -53.95,251.84 -140.88,338.76 -86.92,86.92 -206.83,140.88 -338.75,140.88l-1228.08 0c-131.92,0 -251.83,-53.96 -338.76,-140.88 -86.92,-86.92 -140.87,-206.83 -140.87,-338.76 0,-131.93 53.95,-251.84 140.87,-338.76 86.93,-86.92 206.84,-140.88 338.76,-140.88zm-50.33 908.99l0 -65.31c-84.01,-9.74 -159.6,-48.19 -216.61,-105.2 -51.23,-51.24 -87.48,-117.47 -101.36,-191.35l-58.68 0c14.58,91.98 58.46,174.57 121.69,237.81 67.15,67.15 156.1,112.46 254.96,124.06zm39.46 -62.9l0 65.7c3.61,0.09 7.24,0.14 10.87,0.14l1228.08 0c5.1,0 10.18,-0.1 15.26,-0.27l0 -65.62c-2.38,0.05 -4.77,0.08 -7.16,0.08l-1244.28 0c-0.92,0 -1.84,-0.02 -2.76,-0.02zm-39.46 -730.5l0 -65.3c-98.86,11.59 -187.81,56.91 -254.96,124.06 -64.14,64.14 -108.36,148.18 -122.31,241.75l58.56 0c13.33,-75.46 49.94,-143.15 102.09,-195.3 57.01,-57.02 132.59,-95.46 216.61,-105.21zm39.46 -68.11l0 65.7c0.92,-0.01 1.84,-0.02 2.76,-0.02l1244.28 0c2.39,0 4.77,0.03 7.16,0.08l0 -65.63c-5.07,-0.18 -10.15,-0.27 -15.26,-0.27l-1228.08 0c-3.63,0 -7.25,0.05 -10.87,0.14zm-419.92 468.07l57.98 0c-1.17,-11.82 -1.76,-23.8 -1.76,-35.92 0,-10.76 0.47,-21.42 1.39,-31.96l-57.92 0c-0.78,10.56 -1.19,21.21 -1.19,31.96 0,12.09 0.52,24.07 1.51,35.92zm2031.67 0l57.98 0c0.98,-11.84 1.5,-23.82 1.5,-35.92 0,-10.75 -0.4,-21.41 -1.18,-31.96l-57.92 0c0.93,10.54 1.39,21.2 1.39,31.96 0,12.12 -0.6,24.1 -1.76,35.92zm54.17 31.57l-58.68 0c-13.89,73.88 -50.13,140.11 -101.37,191.35 -56.01,56.02 -129.96,94.12 -212.22,104.67l0 65.31c97.11,-12.41 184.43,-57.38 250.58,-123.53 63.23,-63.24 107.11,-145.82 121.69,-237.81zm-57.95 -131.02l58.56 0c-13.94,-93.57 -58.16,-177.62 -122.3,-241.75 -66.15,-66.15 -153.47,-111.12 -250.58,-123.54l0 65.32c82.26,10.56 156.21,48.65 212.22,104.67 52.16,52.15 88.76,119.83 102.1,195.3zm-360.93 -279.27l-1244.28 0c-94.25,0 -179.95,38.57 -242.09,100.71 -62.13,62.13 -100.7,147.84 -100.7,242.09 0,94.26 38.57,179.96 100.7,242.1 62.14,62.14 147.84,100.7 242.09,100.7l1244.28 0c94.25,0 179.96,-38.57 242.1,-100.7 62.13,-62.14 100.7,-147.84 100.7,-242.1 0,-94.25 -38.57,-179.96 -100.7,-242.09 -62.14,-62.14 -147.84,-100.71 -242.1,-100.71zm-938.09 94.86l631.9 0c26.46,0 50.49,10.8 67.88,28.19l0 0.14c17.39,17.4 28.19,41.38 28.19,67.74l0 399.83 -824.04 0 0 -399.83c0,-26.36 10.8,-50.34 28.19,-67.74l0 -0.14c17.39,-17.39 41.42,-28.19 67.88,-28.19zm26.51 67.97l294.98 146.85 291.24 -146.85 -586.22 0zm633.49 52.11l-338.45 170.64 -349.65 -174.06 0 311.27 688.1 0 0 -307.84z"/>
 </g>
</svg>
