<?xml version="1.0" encoding="UTF-8"?>
<!DOCTYPE svg PUBLIC "-//W3C//DTD SVG 1.1//EN" "http://www.w3.org/Graphics/SVG/1.1/DTD/svg11.dtd">
<!-- Creator: CorelDRAW 2018 -->
<svg xmlns="http://www.w3.org/2000/svg" xml:space="preserve" width="27.1688mm" height="11.9152mm" version="1.1" style="shape-rendering:geometricPrecision; text-rendering:geometricPrecision; image-rendering:optimizeQuality; fill-rule:evenodd; clip-rule:evenodd"
viewBox="0 0 690.64 302.89"
 xmlns:xlink="http://www.w3.org/1999/xlink">
 <defs>
  <style type="text/css">
   <![CDATA[
    .fil0 {fill:black;fill-rule:nonzero}
   ]]>
  </style>
 </defs>
 <g id="Capa_x0020_1">
  <metadata id="CorelCorpID_0Corel-Layer"/>
  <path class="fil0" d="M151.44 0l387.76 0c41.65,0 79.52,17.04 106.96,44.48 27.45,27.44 44.48,65.31 44.48,106.96 0,41.65 -17.03,79.52 -44.48,106.96 -27.44,27.45 -65.31,44.48 -106.96,44.48l-387.76 0c-41.65,0 -79.52,-17.03 -106.96,-44.48 -27.44,-27.44 -44.48,-65.31 -44.48,-106.96 0,-41.65 17.03,-79.52 44.48,-106.96 27.45,-27.45 65.31,-44.48 106.96,-44.48zm-15.89 287.01l0 -20.62c-26.53,-3.08 -50.39,-15.22 -68.39,-33.22 -16.18,-16.18 -27.62,-37.09 -32,-60.42l-18.53 0c4.6,29.04 18.46,55.12 38.42,75.08 21.2,21.2 49.29,35.51 80.5,39.17zm12.46 -19.86l0 20.74c1.14,0.03 2.29,0.05 3.43,0.05l387.76 0c1.61,0 3.22,-0.03 4.82,-0.09l0 -20.72c-0.75,0.02 -1.5,0.02 -2.26,0.02l-392.88 0c-0.29,0 -0.58,-0 -0.87,-0.01zm-12.46 -230.65l0 -20.62c-31.21,3.66 -59.3,17.97 -80.5,39.17 -20.25,20.25 -34.21,46.79 -38.62,76.33l18.49 0c4.21,-23.83 15.77,-45.2 32.23,-61.67 18,-18 41.87,-30.14 68.39,-33.22zm12.46 -21.51l0 20.74c0.29,-0 0.58,-0.01 0.87,-0.01l392.88 0c0.75,0 1.5,0.01 2.26,0.03l0 -20.72c-1.6,-0.06 -3.21,-0.09 -4.82,-0.09l-387.76 0c-1.15,0 -2.29,0.02 -3.43,0.05zm-132.59 147.79l18.31 0c-0.37,-3.73 -0.56,-7.51 -0.56,-11.34 0,-3.4 0.15,-6.77 0.44,-10.09l-18.29 0c-0.25,3.34 -0.37,6.7 -0.37,10.09 0,3.82 0.16,7.6 0.47,11.34zm641.49 0l18.31 0c0.31,-3.74 0.47,-7.52 0.47,-11.34 0,-3.39 -0.13,-6.76 -0.37,-10.09l-18.29 0c0.29,3.33 0.44,6.69 0.44,10.09 0,3.83 -0.19,7.61 -0.56,11.34zm17.1 9.97l-18.53 0c-4.39,23.33 -15.83,44.24 -32.01,60.42 -17.69,17.68 -41.04,29.72 -67.01,33.05l0 20.62c30.66,-3.92 58.23,-18.12 79.12,-39.01 19.97,-19.97 33.82,-46.04 38.43,-75.08zm-18.3 -41.37l18.49 0c-4.4,-29.55 -18.36,-56.08 -38.62,-76.33 -20.89,-20.89 -48.46,-35.09 -79.12,-39.01l0 20.62c25.97,3.33 49.32,15.36 67.01,33.05 16.46,16.47 28.03,37.84 32.23,61.67zm-113.96 -88.18l-392.88 0c-29.76,0 -56.82,12.18 -76.44,31.8 -19.62,19.62 -31.8,46.68 -31.8,76.44 0,29.76 12.18,56.82 31.8,76.44 19.62,19.62 46.68,31.8 76.44,31.8l392.88 0c29.76,0 56.82,-12.18 76.44,-31.8 19.62,-19.62 31.8,-46.68 31.8,-76.44 0,-29.76 -12.18,-56.82 -31.8,-76.44 -19.62,-19.62 -46.68,-31.8 -76.44,-31.8zm-60.27 35.92c-25.15,-6.08 -47.42,-6.47 -67.73,-3.03 -20.33,3.45 -38.84,10.77 -56.4,20.07l0 123.61c10.18,-6.34 22.43,-11.25 38.07,-13.8 21.23,-3.45 48.75,-2.48 86.05,5.36l0 -132.21zm-283.04 -15.82c30.4,-8.29 57.1,-9.09 81.39,-4.97 23.88,4.05 45.28,12.83 65.48,23.9 20.2,-11.07 41.61,-19.85 65.48,-23.9 24.29,-4.12 51,-3.31 81.39,4.97 4.18,0.79 7.34,4.46 7.34,8.86l0 150.41c-0.01,0.67 -0.09,1.36 -0.25,2.04 -1.13,4.85 -5.97,7.86 -10.82,6.73 -40.55,-9.5 -69.08,-11.03 -90.14,-7.61 -19.73,3.21 -32.85,10.85 -43.31,20.27 -1.65,1.82 -4.03,2.96 -6.68,2.96 -1.06,0 -2.07,-0.18 -3.02,-0.52 -0.94,0.34 -1.96,0.52 -3.02,0.52 -2.65,0 -5.03,-1.14 -6.68,-2.96 -10.46,-9.42 -23.58,-17.06 -43.31,-20.27 -21.06,-3.42 -49.59,-1.89 -90.14,7.61 -4.85,1.13 -9.69,-1.88 -10.82,-6.73 -0.16,-0.69 -0.24,-1.37 -0.24,-2.04l-0.01 -150.41c0,-4.41 3.16,-8.07 7.34,-8.86zm78.43 12.79c-20.31,-3.44 -42.57,-3.05 -67.73,3.03l0 132.21c37.3,-7.84 64.82,-8.81 86.05,-5.36 15.65,2.54 27.89,7.46 38.07,13.8l0 -123.61c-17.56,-9.31 -36.07,-16.62 -56.4,-20.07z"/>
 </g>
</svg>
