<?xml version="1.0" encoding="UTF-8"?>
<!DOCTYPE svg PUBLIC "-//W3C//DTD SVG 1.1//EN" "http://www.w3.org/Graphics/SVG/1.1/DTD/svg11.dtd">
<!-- Creator: CorelDRAW 2018 -->
<svg xmlns="http://www.w3.org/2000/svg" xml:space="preserve" width="27.1688mm" height="11.9151mm" version="1.1" style="shape-rendering:geometricPrecision; text-rendering:geometricPrecision; image-rendering:optimizeQuality; fill-rule:evenodd; clip-rule:evenodd"
viewBox="0 0 611.6 268.22"
 xmlns:xlink="http://www.w3.org/1999/xlink">
 <defs>
  <style type="text/css">
   <![CDATA[
    .fil0 {fill:black;fill-rule:nonzero}
   ]]>
  </style>
 </defs>
 <g id="Capa_x0020_1">
  <metadata id="CorelCorpID_0Corel-Layer"/>
  <path class="fil0" d="M134.11 0l343.38 0c36.89,0 70.42,15.09 94.72,39.39 24.31,24.3 39.39,57.83 39.39,94.72 0,36.89 -15.08,70.42 -39.39,94.72 -24.3,24.31 -57.83,39.39 -94.72,39.39l-343.38 0c-36.88,0 -70.41,-15.08 -94.72,-39.39 -24.3,-24.3 -39.39,-57.83 -39.39,-94.72 0,-36.89 15.09,-70.42 39.39,-94.72 24.31,-24.31 57.84,-39.39 94.72,-39.39zm-14.07 254.16l0 -18.26c-23.49,-2.73 -44.62,-13.48 -60.57,-29.42 -14.32,-14.33 -24.46,-32.85 -28.34,-53.5l-16.41 0c4.08,25.72 16.35,48.81 34.03,66.49 18.77,18.78 43.65,31.45 71.29,34.69zm11.03 -17.59l0 18.37c1.01,0.03 2.02,0.04 3.04,0.04l343.38 0c1.43,0 2.85,-0.03 4.27,-0.08l0 -18.35c-0.67,0.01 -1.33,0.02 -2,0.02l-347.91 0c-0.26,0 -0.52,-0 -0.77,-0zm-11.03 -204.25l0 -18.26c-27.64,3.24 -52.51,15.91 -71.29,34.69 -17.93,17.93 -30.3,41.43 -34.2,67.6l16.37 0c3.73,-21.1 13.96,-40.03 28.54,-54.61 15.94,-15.94 37.08,-26.69 60.57,-29.42zm11.03 -19.04l0 18.37c0.26,-0 0.52,-0.01 0.77,-0.01l347.91 0c0.67,0 1.33,0.01 2,0.02l0 -18.35c-1.42,-0.05 -2.84,-0.08 -4.27,-0.08l-343.38 0c-1.02,0 -2.03,0.01 -3.04,0.04zm-117.41 130.88l16.21 0c-0.32,-3.3 -0.49,-6.65 -0.49,-10.04 0,-3.01 0.13,-5.99 0.39,-8.94l-16.19 0c-0.22,2.95 -0.33,5.93 -0.33,8.94 0,3.38 0.14,6.73 0.42,10.04zm568.08 0l16.21 0c0.27,-3.31 0.42,-6.66 0.42,-10.04 0,-3.01 -0.11,-5.99 -0.33,-8.94l-16.19 0c0.26,2.95 0.39,5.93 0.39,8.94 0,3.39 -0.17,6.74 -0.49,10.04zm15.15 8.83l-16.41 0c-3.88,20.66 -14.02,39.18 -28.34,53.5 -15.66,15.66 -36.34,26.32 -59.34,29.27l0 18.26c27.15,-3.47 51.57,-16.04 70.06,-34.54 17.68,-17.68 29.95,-40.77 34.03,-66.49zm-16.21 -36.63l16.37 0c-3.9,-26.16 -16.26,-49.66 -34.2,-67.6 -18.5,-18.5 -42.91,-31.07 -70.06,-34.54l0 18.26c23,2.95 43.68,13.61 59.34,29.27 14.58,14.58 24.82,33.51 28.54,54.61zm-100.92 -78.09l-347.91 0c-26.35,0 -50.32,10.78 -67.69,28.16 -17.37,17.37 -28.16,41.33 -28.16,67.69 0,26.36 10.79,50.32 28.16,67.69 17.37,17.38 41.34,28.16 67.69,28.16l347.91 0c26.35,0 50.32,-10.78 67.69,-28.16 17.37,-17.37 28.16,-41.33 28.16,-67.69 0,-26.36 -10.79,-50.32 -28.16,-67.69 -17.37,-17.38 -41.34,-28.16 -67.69,-28.16zm-264.33 86.37c4.55,-15.13 12.83,-28.7 23.74,-39.61 17.09,-17.09 40.68,-27.7 66.63,-27.7 25.95,0 49.54,10.61 66.63,27.7 10.92,10.92 19.19,24.48 23.74,39.61 3.06,1.63 5.39,4.57 6.11,8.24 0.56,2.87 1.01,5.99 1.34,9.38 0.33,3.36 0.49,6.51 0.49,9.4l0 45.97c0,6.58 -5.34,11.92 -11.92,11.92 -6.58,0 -11.92,-5.34 -11.92,-11.92l0 -45.97c0,-2.69 -0.11,-5.08 -0.31,-7.17 -0.21,-2.17 -0.57,-4.52 -1.06,-7.05 -0.63,-3.24 0.11,-6.42 1.82,-8.95 -3.83,-12.29 -10.62,-23.32 -19.53,-32.23 -14.22,-14.22 -33.83,-23.04 -55.39,-23.04 -21.56,0 -41.17,8.83 -55.39,23.04 -8.91,8.91 -15.7,19.93 -19.53,32.23 1.71,2.53 2.45,5.72 1.82,8.95 -0.49,2.52 -0.85,4.88 -1.06,7.05 -0.2,2.09 -0.31,4.48 -0.31,7.17l0 45.97c0,6.58 -5.34,11.92 -11.92,11.92 -6.58,0 -11.92,-5.34 -11.92,-11.92l0 -45.97c0,-2.89 0.17,-6.04 0.5,-9.4 0.33,-3.39 0.78,-6.51 1.33,-9.38 0.72,-3.67 3.05,-6.61 6.11,-8.24zm152.17 25.8l-9.31 0c-4.39,0 -7.97,3.59 -7.97,7.97l0 44.52c0,4.39 3.59,7.97 7.97,7.97l9.31 0c4.39,0 7.97,-3.59 7.97,-7.97l0 -44.52c0,-4.39 -3.59,-7.97 -7.97,-7.97zm-114.7 0l-9.3 0c-4.39,0 -7.97,3.59 -7.97,7.97l0 44.52c0,4.39 3.59,7.97 7.97,7.97l9.3 0c4.39,0 7.97,-3.59 7.97,-7.97l0 -44.52c0,-4.39 -3.59,-7.97 -7.97,-7.97z"/>
 </g>
</svg>
