<?xml version="1.0" encoding="UTF-8"?>
<!DOCTYPE svg PUBLIC "-//W3C//DTD SVG 1.1//EN" "http://www.w3.org/Graphics/SVG/1.1/DTD/svg11.dtd">
<!-- Creator: CorelDRAW 2018 -->
<svg xmlns="http://www.w3.org/2000/svg" xml:space="preserve" width="27.1698mm" height="11.9154mm" version="1.1" style="shape-rendering:geometricPrecision; text-rendering:geometricPrecision; image-rendering:optimizeQuality; fill-rule:evenodd; clip-rule:evenodd"
viewBox="0 0 1399.61 613.8"
 xmlns:xlink="http://www.w3.org/1999/xlink">
 <defs>
  <style type="text/css">
   <![CDATA[
    .fil0 {fill:black;fill-rule:nonzero}
   ]]>
  </style>
 </defs>
 <g id="Capa_x0020_1">
  <metadata id="CorelCorpID_0Corel-Layer"/>
  <path class="fil0" d="M306.91 0l785.8 0c84.41,0 161.14,34.52 216.76,90.14 55.62,55.61 90.14,132.34 90.14,216.76 0,84.42 -34.52,161.14 -90.14,216.76 -55.61,55.62 -132.35,90.14 -216.76,90.14l-785.8 0c-84.41,0 -161.14,-34.52 -216.76,-90.14 -55.62,-55.62 -90.14,-132.35 -90.14,-216.76 0,-84.42 34.52,-161.14 90.14,-216.76 55.62,-55.62 132.35,-90.14 216.76,-90.14zm-32.21 581.63l0 -41.79c-53.75,-6.24 -102.12,-30.84 -138.6,-67.32 -32.78,-32.78 -55.97,-75.17 -64.86,-122.44l-37.54 0c9.33,58.86 37.4,111.7 77.87,152.17 42.96,42.96 99.88,71.96 163.14,79.38zm25.25 -40.24l0 42.04c2.31,0.06 4.64,0.09 6.96,0.09l785.8 0c3.27,0 6.52,-0.06 9.76,-0.18l0 -41.99c-1.52,0.03 -3.04,0.05 -4.57,0.05l-796.18 0c-0.59,0 -1.18,-0.01 -1.77,-0.01zm-25.25 -467.42l0 -41.79c-63.26,7.42 -120.18,36.42 -163.14,79.39 -41.04,41.04 -69.34,94.82 -78.26,154.69l37.48 0c8.53,-48.29 31.95,-91.6 65.32,-124.97 36.48,-36.48 84.85,-61.08 138.6,-67.32zm25.25 -43.59l0 42.04c0.59,-0.01 1.18,-0.01 1.77,-0.01l796.18 0c1.53,0 3.05,0.02 4.57,0.05l0 -41.99c-3.24,-0.11 -6.5,-0.18 -9.76,-0.18l-785.8 0c-2.32,0 -4.65,0.03 -6.96,0.09zm-268.69 299.51l37.09 0c-0.75,-7.57 -1.13,-15.23 -1.13,-22.99 0,-6.89 0.3,-13.71 0.89,-20.46l-37.06 0c-0.5,6.76 -0.76,13.58 -0.76,20.46 0,7.74 0.33,15.4 0.96,22.99zm1300.01 0l37.09 0c0.63,-7.58 0.96,-15.24 0.96,-22.99 0,-6.88 -0.26,-13.7 -0.76,-20.46l-37.06 0c0.59,6.74 0.89,13.57 0.89,20.46 0,7.75 -0.39,15.42 -1.13,22.99zm34.66 20.19l-37.55 0c-8.89,47.27 -32.08,89.66 -64.86,122.44 -35.84,35.84 -83.16,60.22 -135.79,66.98l0 41.79c62.14,-7.94 118.01,-36.71 160.34,-79.04 40.46,-40.46 68.53,-93.31 77.87,-152.17zm-37.08 -83.83l37.47 0c-8.92,-59.87 -37.21,-113.65 -78.25,-154.69 -42.33,-42.33 -98.2,-71.1 -160.34,-79.05l0 41.79c52.64,6.75 99.95,31.13 135.79,66.98 33.37,33.37 56.8,76.68 65.32,124.97zm-230.94 -178.7l-796.18 0c-60.31,0 -115.15,24.67 -154.91,64.44 -39.76,39.76 -64.44,94.59 -64.44,154.91 0,60.32 24.69,115.15 64.44,154.91 39.76,39.76 94.59,64.44 154.91,64.44l796.18 0c60.31,0 115.15,-24.68 154.91,-64.44 39.76,-39.76 64.44,-94.59 64.44,-154.91 0,-60.31 -24.69,-115.15 -64.44,-154.91 -39.76,-39.76 -94.59,-64.44 -154.91,-64.44zm-402.52 38.2l8.23 0c19.47,0 37.18,7.96 50,20.79l0 0.04c12.82,12.82 20.79,30.51 20.79,49.96l0 1.68 73.22 -60.06c8.87,-7.28 21.96,-6.01 29.24,2.85 7.29,8.86 6.01,21.96 -2.85,29.24l-99.62 81.71 0 14.47 16.68 0 0 79.34c0,23.82 -9.74,45.47 -25.42,61.15 -12.04,12.04 -27.61,20.58 -44.98,23.9l0 37.96 86.16 0 0 23.3c0,12.82 -10.49,23.3 -23.3,23.3l-169.48 0c-12.82,0 -23.3,-10.49 -23.3,-23.3l0 -23.3 86.16 0 0 -38.24c-16.8,-3.5 -31.85,-11.89 -43.57,-23.61 -7.18,-7.19 -13.12,-15.63 -17.45,-24.96l-63.88 52.4c-8.87,7.29 -21.96,6.01 -29.24,-2.85 -7.29,-8.86 -6.02,-21.96 2.85,-29.24l82.31 -67.5 0 -68.33 16.69 0 0 -69.89c0,-19.48 7.96,-37.18 20.78,-50 12.82,-12.82 30.52,-20.79 50,-20.79zm67.89 208.86l-11.12 0 0 -64.41 -113.69 93.25c2.89,9.08 7.94,17.22 14.53,23.81 10.65,10.65 25.35,17.27 41.49,17.27l10.02 0c16.14,0 30.84,-6.62 41.49,-17.27 10.65,-10.65 17.27,-25.35 17.27,-41.49l0 -11.16zm-11.12 -118.15l0 -19.93c0,-13.35 -5.46,-25.49 -14.24,-34.29 -8.82,-8.78 -20.96,-14.24 -34.29,-14.24l-8.23 0c-13.34,0 -25.47,5.47 -34.28,14.26 -8.8,8.8 -14.26,20.94 -14.26,34.27l0 106.3 105.31 -86.37z"/>
 </g>
</svg>
