<?xml version="1.0" encoding="UTF-8"?>
<!DOCTYPE svg PUBLIC "-//W3C//DTD SVG 1.1//EN" "http://www.w3.org/Graphics/SVG/1.1/DTD/svg11.dtd">
<!-- Creator: CorelDRAW 2018 -->
<svg xmlns="http://www.w3.org/2000/svg" xml:space="preserve" width="27.1687mm" height="11.9153mm" version="1.1" style="shape-rendering:geometricPrecision; text-rendering:geometricPrecision; image-rendering:optimizeQuality; fill-rule:evenodd; clip-rule:evenodd"
viewBox="0 0 683.64 299.82"
 xmlns:xlink="http://www.w3.org/1999/xlink">
 <defs>
  <style type="text/css">
   <![CDATA[
    .fil0 {fill:black;fill-rule:nonzero}
   ]]>
  </style>
 </defs>
 <g id="Capa_x0020_1">
  <metadata id="CorelCorpID_0Corel-Layer"/>
  <path class="fil0" d="M149.91 0l383.84 0c41.23,0 78.71,16.87 105.87,44.03 27.17,27.17 44.03,64.65 44.03,105.88 0,41.23 -16.86,78.71 -44.03,105.87 -27.16,27.17 -64.65,44.03 -105.87,44.03l-383.84 0c-41.23,0 -78.71,-16.86 -105.88,-44.03 -27.17,-27.16 -44.03,-64.64 -44.03,-105.87 0,-41.23 16.86,-78.71 44.03,-105.88 27.16,-27.16 64.65,-44.03 105.88,-44.03zm121.13 86.42l46.71 0 0 126.98 -46.71 0 0 -126.98zm94.87 0l46.71 0 0 126.98 -46.71 0 0 -126.98zm-231.73 197.68l0 -20.41c-26.25,-3.04 -49.88,-15.06 -67.7,-32.88 -16.01,-16.01 -27.34,-36.71 -31.68,-59.8l-18.34 0c4.56,28.75 18.27,54.56 38.04,74.32 20.98,20.99 48.79,35.15 79.68,38.78zm12.34 -19.66l0 20.54c1.13,0.03 2.26,0.04 3.39,0.04l383.84 0c1.59,0 3.19,-0.04 4.77,-0.09l0 -20.51c-0.74,0.02 -1.49,0.03 -2.23,0.03l-388.9 0c-0.28,0 -0.58,0 -0.86,-0.01zm-12.34 -228.31l0 -20.41c-30.89,3.62 -58.7,17.79 -79.68,38.78 -20.05,20.04 -33.87,46.3 -38.23,75.56l18.31 0c4.16,-23.59 15.61,-44.74 31.9,-61.04 17.82,-17.82 41.45,-29.84 67.7,-32.88zm12.34 -21.29l0 20.53c0.28,0 0.58,0 0.86,0l388.9 0c0.74,0 1.49,0.01 2.23,0.03l0 -20.52c-1.58,-0.05 -3.18,-0.08 -4.77,-0.08l-383.84 0c-1.14,0 -2.27,0.02 -3.39,0.04zm-131.25 146.29l18.12 0c-0.36,-3.7 -0.55,-7.44 -0.55,-11.22 0,-3.36 0.15,-6.7 0.44,-9.99l-18.1 0c-0.25,3.3 -0.38,6.63 -0.38,9.99 0,3.78 0.16,7.53 0.47,11.22zm635 0l18.11 0c0.31,-3.7 0.47,-7.44 0.47,-11.22 0,-3.36 -0.13,-6.69 -0.37,-9.99l-18.1 0c0.28,3.3 0.43,6.62 0.43,9.99 0,3.79 -0.19,7.53 -0.55,11.22zm16.93 9.87l-18.34 0c-4.34,23.09 -15.66,43.79 -31.68,59.8 -17.51,17.51 -40.62,29.42 -66.33,32.72l0 20.41c30.36,-3.88 57.65,-17.93 78.32,-38.61 19.76,-19.76 33.48,-45.57 38.03,-74.32zm-18.11 -40.95l18.31 0c-4.36,-29.25 -18.18,-55.51 -38.22,-75.56 -20.67,-20.68 -47.96,-34.73 -78.32,-38.61l0 20.41c25.72,3.29 48.82,15.2 66.33,32.71 16.3,16.3 27.74,37.45 31.9,61.04zm-112.8 -87.29l-388.9 0c-29.46,0 -56.24,12.06 -75.66,31.48 -19.43,19.42 -31.48,46.21 -31.48,75.67 0,29.46 12.05,56.24 31.48,75.67 19.42,19.42 46.2,31.47 75.66,31.47l388.9 0c29.45,0 56.24,-12.05 75.66,-31.47 19.42,-19.43 31.48,-46.21 31.48,-75.67 0,-29.46 -12.06,-56.25 -31.48,-75.67 -19.42,-19.42 -46.2,-31.48 -75.66,-31.48z"/>
 </g>
</svg>
