<?xml version="1.0" encoding="UTF-8"?>
<!DOCTYPE svg PUBLIC "-//W3C//DTD SVG 1.1//EN" "http://www.w3.org/Graphics/SVG/1.1/DTD/svg11.dtd">
<!-- Creator: CorelDRAW 2018 -->
<svg xmlns="http://www.w3.org/2000/svg" xml:space="preserve" width="27.1689mm" height="11.9151mm" version="1.1" style="shape-rendering:geometricPrecision; text-rendering:geometricPrecision; image-rendering:optimizeQuality; fill-rule:evenodd; clip-rule:evenodd"
viewBox="0 0 1399.52 613.77"
 xmlns:xlink="http://www.w3.org/1999/xlink">
 <defs>
  <style type="text/css">
   <![CDATA[
    .fil0 {fill:black;fill-rule:nonzero}
   ]]>
  </style>
 </defs>
 <g id="Capa_x0020_1">
  <metadata id="CorelCorpID_0Corel-Layer"/>
  <path class="fil0" d="M306.89 0l785.75 0c84.4,0 161.13,34.52 216.74,90.14 55.62,55.61 90.14,132.34 90.14,216.75 0,84.41 -34.52,161.13 -90.14,216.75 -55.61,55.61 -132.34,90.14 -216.74,90.14l-785.75 0c-84.41,0 -161.13,-34.52 -216.75,-90.14 -55.61,-55.61 -90.13,-132.34 -90.13,-216.75 0,-84.41 34.52,-161.14 90.13,-216.75 55.62,-55.62 132.34,-90.14 216.75,-90.14zm-32.2 581.59l0 -41.79c-53.76,-6.24 -102.12,-30.83 -138.6,-67.32 -32.78,-32.78 -55.97,-75.16 -64.85,-122.43l-37.54 0c9.33,58.86 37.4,111.7 77.86,152.16 42.96,42.96 99.88,71.96 163.13,79.38zm25.24 -40.24l0 42.03c2.31,0.06 4.64,0.09 6.96,0.09l785.75 0c3.27,0 6.52,-0.06 9.76,-0.18l0 -41.98c-1.52,0.03 -3.05,0.05 -4.58,0.05l-796.12 0c-0.59,0 -1.18,-0.01 -1.77,-0.01zm-25.24 -467.39l0 -41.79c-63.26,7.42 -120.17,36.42 -163.13,79.38 -41.04,41.04 -69.33,94.81 -78.25,154.68l37.47 0c8.53,-48.28 31.96,-91.59 65.32,-124.96 36.48,-36.48 84.84,-61.08 138.6,-67.32zm25.24 -43.58l0 42.03c0.59,-0.01 1.18,-0.01 1.77,-0.01l796.12 0c1.53,0 3.05,0.02 4.58,0.05l0 -41.99c-3.25,-0.11 -6.5,-0.18 -9.76,-0.18l-785.75 0c-2.32,0 -4.65,0.03 -6.96,0.09zm-268.68 299.48l37.1 0c-0.75,-7.56 -1.13,-15.23 -1.13,-22.98 0,-6.89 0.3,-13.71 0.89,-20.46l-37.06 0c-0.5,6.76 -0.76,13.58 -0.76,20.46 0,7.73 0.33,15.4 0.96,22.98zm1299.92 0l37.09 0c0.63,-7.58 0.96,-15.24 0.96,-22.98 0,-6.88 -0.26,-13.7 -0.76,-20.46l-37.06 0c0.59,6.74 0.89,13.56 0.89,20.46 0,7.75 -0.39,15.42 -1.13,22.98zm34.66 20.19l-37.55 0c-8.89,47.27 -32.08,89.65 -64.86,122.43 -35.84,35.84 -83.15,60.22 -135.78,66.98l0 41.79c62.13,-7.94 117.99,-36.71 160.32,-79.04 40.46,-40.46 68.53,-93.3 77.87,-152.16zm-37.08 -83.83l37.47 0c-8.92,-59.87 -37.21,-113.64 -78.25,-154.68 -42.33,-42.33 -98.19,-71.1 -160.32,-79.04l0 41.79c52.63,6.75 99.94,31.13 135.78,66.97 33.37,33.36 56.79,76.68 65.32,124.96zm-230.93 -178.68l-796.12 0c-60.31,0 -115.14,24.68 -154.9,64.44 -39.76,39.76 -64.44,94.59 -64.44,154.9 0,60.31 24.68,115.14 64.44,154.9 39.76,39.76 94.59,64.44 154.9,64.44l796.12 0c60.31,0 115.14,-24.67 154.9,-64.44 39.76,-39.76 64.44,-94.59 64.44,-154.9 0,-60.31 -24.68,-115.14 -64.44,-154.9 -39.76,-39.76 -94.59,-64.44 -154.9,-64.44zm-397.4 338.88c10.14,-32.46 -12.85,-57.29 -55.07,-66.83 144.42,-85.51 109.48,-90.68 163.08,-134.46 3.6,50.78 28.3,68.71 61.37,73.65 30.68,-14.32 61.37,-28.64 92.05,-42.96 18.18,-20.46 14.13,-40.91 -3.68,-61.37 -53.2,-64.63 -86.6,-55.79 -156.92,-28.99 -81.83,31.2 -145.51,86.87 -198.83,156.49 -43.41,56.68 -81.36,92.48 -28.31,156.93 12.66,15.38 29.43,22.11 55.12,10.13 23.73,-20.86 47.46,-41.73 71.19,-62.59z"/>
 </g>
</svg>
