<?xml version="1.0" encoding="UTF-8"?>
<!DOCTYPE svg PUBLIC "-//W3C//DTD SVG 1.1//EN" "http://www.w3.org/Graphics/SVG/1.1/DTD/svg11.dtd">
<!-- Creator: CorelDRAW 2018 -->
<svg xmlns="http://www.w3.org/2000/svg" xml:space="preserve" width="27.1688mm" height="11.9151mm" version="1.1" style="shape-rendering:geometricPrecision; text-rendering:geometricPrecision; image-rendering:optimizeQuality; fill-rule:evenodd; clip-rule:evenodd"
viewBox="0 0 611.6 268.22"
 xmlns:xlink="http://www.w3.org/1999/xlink">
 <defs>
  <style type="text/css">
   <![CDATA[
    .fil0 {fill:black;fill-rule:nonzero}
   ]]>
  </style>
 </defs>
 <g id="Capa_x0020_1">
  <metadata id="CorelCorpID_0Corel-Layer"/>
  <path class="fil0" d="M134.11 0l343.38 0c36.89,0 70.42,15.08 94.72,39.39 24.31,24.3 39.39,57.83 39.39,94.72 0,36.89 -15.08,70.42 -39.39,94.72 -24.3,24.31 -57.83,39.39 -94.72,39.39l-343.38 0c-36.89,0 -70.42,-15.09 -94.72,-39.39 -24.3,-24.3 -39.39,-57.83 -39.39,-94.72 0,-36.89 15.08,-70.42 39.39,-94.72 24.31,-24.31 57.84,-39.39 94.72,-39.39zm-14.07 254.16l0 -18.26c-23.49,-2.72 -44.63,-13.48 -60.57,-29.42 -14.32,-14.33 -24.46,-32.85 -28.34,-53.5l-16.41 0c4.08,25.72 16.35,48.81 34.03,66.49 18.77,18.77 43.65,31.45 71.29,34.69zm11.03 -17.58l0 18.37c1.01,0.03 2.03,0.04 3.04,0.04l343.38 0c1.43,0 2.85,-0.03 4.27,-0.08l0 -18.35c-0.66,0.01 -1.33,0.02 -2,0.02l-347.91 0c-0.26,0 -0.52,-0 -0.77,-0zm-11.03 -204.25l0 -18.26c-27.64,3.24 -52.52,15.92 -71.29,34.69 -17.93,17.93 -30.3,41.43 -34.2,67.6l16.37 0c3.73,-21.1 13.97,-40.03 28.54,-54.61 15.94,-15.94 37.08,-26.69 60.57,-29.42zm11.03 -19.04l0 18.37c0.26,-0 0.52,-0 0.77,-0l347.91 0c0.67,0 1.33,0.01 2,0.02l0 -18.35c-1.42,-0.05 -2.84,-0.08 -4.27,-0.08l-343.38 0c-1.02,0 -2.03,0.01 -3.04,0.04zm-117.41 130.88l16.21 0c-0.33,-3.3 -0.49,-6.65 -0.49,-10.04 0,-3.01 0.13,-5.99 0.39,-8.94l-16.19 0c-0.22,2.95 -0.33,5.93 -0.33,8.94 0,3.38 0.14,6.73 0.42,10.04zm568.08 0l16.21 0c0.28,-3.31 0.42,-6.66 0.42,-10.04 0,-3.01 -0.11,-5.99 -0.33,-8.94l-16.2 0c0.26,2.94 0.39,5.93 0.39,8.94 0,3.39 -0.17,6.74 -0.49,10.04zm15.15 8.83l-16.41 0c-3.88,20.66 -14.02,39.18 -28.34,53.5 -15.66,15.66 -36.34,26.32 -59.34,29.27l0 18.26c27.15,-3.47 51.57,-16.04 70.06,-34.54 17.68,-17.68 29.95,-40.77 34.03,-66.49zm-16.2 -36.63l16.37 0c-3.9,-26.16 -16.26,-49.66 -34.19,-67.6 -18.5,-18.5 -42.91,-31.07 -70.06,-34.54l0 18.26c23,2.95 43.68,13.61 59.34,29.27 14.58,14.58 24.82,33.51 28.55,54.61zm-100.92 -78.09l-347.91 0c-26.36,0 -50.32,10.78 -67.69,28.16 -17.37,17.37 -28.16,41.33 -28.16,67.69 0,26.36 10.79,50.32 28.16,67.69 17.37,17.38 41.33,28.16 67.69,28.16l347.91 0c26.35,0 50.32,-10.78 67.69,-28.16 17.37,-17.37 28.16,-41.33 28.16,-67.69 0,-26.36 -10.79,-50.32 -28.16,-67.69 -17.37,-17.38 -41.34,-28.16 -67.69,-28.16zm-272.39 143l0 -92.98 34.58 0 61.38 -35.43 0 160.57 -55.7 -32.16 -40.25 0zm114.01 -84.5c-3.17,-3.12 -3.21,-8.21 -0.09,-11.37 3.12,-3.17 8.21,-3.21 11.37,-0.09 15.96,15.68 24.44,31.57 24.62,47.66 0.18,16.26 -8.05,31.95 -25.55,47.03 -3.36,2.91 -8.43,2.54 -11.34,-0.82 -2.9,-3.36 -2.54,-8.44 0.82,-11.34 13.68,-11.79 20.13,-23.37 20,-34.75 -0.13,-11.54 -6.96,-23.67 -19.83,-36.31zm14.48 -14.16c-3.53,-2.7 -4.21,-7.75 -1.51,-11.28 2.69,-3.53 7.75,-4.21 11.28,-1.51 26.47,20.33 37.78,41.4 36.63,63.06 -1.13,21.26 -14.41,42.21 -37.19,62.9 -3.29,2.99 -8.38,2.75 -11.37,-0.54 -2.99,-3.29 -2.75,-8.38 0.54,-11.37 19.66,-17.85 31.08,-35.18 31.96,-51.81 0.86,-16.23 -8.51,-32.7 -30.33,-49.45zm17.75 -16.73c-3.08,-3.2 -2.98,-8.3 0.22,-11.37 3.2,-3.08 8.3,-2.98 11.37,0.22 27.58,28.56 39.8,56.17 39.01,82.91 -0.8,26.81 -14.64,52.09 -39.2,76.07 -3.18,3.1 -8.28,3.03 -11.37,-0.16 -3.1,-3.18 -3.03,-8.28 0.16,-11.37 21.55,-21.04 33.68,-42.68 34.35,-64.98 0.67,-22.36 -10.16,-46.07 -34.53,-71.31z"/>
 </g>
</svg>
