<?xml version="1.0" encoding="UTF-8"?>
<!DOCTYPE svg PUBLIC "-//W3C//DTD SVG 1.1//EN" "http://www.w3.org/Graphics/SVG/1.1/DTD/svg11.dtd">
<!-- Creator: CorelDRAW 2018 -->
<svg xmlns="http://www.w3.org/2000/svg" xml:space="preserve" width="27.1681mm" height="11.9147mm" version="1.1" style="shape-rendering:geometricPrecision; text-rendering:geometricPrecision; image-rendering:optimizeQuality; fill-rule:evenodd; clip-rule:evenodd"
viewBox="0 0 1399.44 613.73"
 xmlns:xlink="http://www.w3.org/1999/xlink">
 <defs>
  <style type="text/css">
   <![CDATA[
    .fil0 {fill:black;fill-rule:nonzero}
   ]]>
  </style>
 </defs>
 <g id="Capa_x0020_1">
  <metadata id="CorelCorpID_0Corel-Layer"/>
  <path class="fil0" d="M306.87 0l785.7 0c84.4,0 161.12,34.52 216.73,90.13 55.61,55.61 90.13,132.33 90.13,216.73 0,84.4 -34.52,161.12 -90.13,216.73 -55.61,55.61 -132.33,90.13 -216.73,90.13l-785.7 0c-84.4,0 -161.12,-34.52 -216.73,-90.13 -55.61,-55.61 -90.13,-132.33 -90.13,-216.73 0,-84.4 34.52,-161.12 90.13,-216.73 55.61,-55.62 132.34,-90.13 216.73,-90.13zm-32.2 581.56l0 -41.78c-53.75,-6.24 -102.11,-30.83 -138.58,-67.31 -32.78,-32.78 -55.97,-75.16 -64.85,-122.42l-37.54 0c9.33,58.86 37.4,111.69 77.86,152.15 42.95,42.96 99.87,71.95 163.12,79.37zm25.24 -40.23l0 42.03c2.32,0.06 4.64,0.09 6.96,0.09l785.7 0c3.27,0 6.52,-0.06 9.76,-0.18l0 -41.99c-1.52,0.03 -3.04,0.05 -4.57,0.05l-796.08 0c-0.59,0 -1.18,-0.01 -1.77,-0.01zm-25.24 -467.36l0 -41.79c-63.25,7.42 -120.16,36.41 -163.12,79.37 -41.04,41.04 -69.33,94.81 -78.25,154.68l37.47 0c8.52,-48.29 31.95,-91.59 65.32,-124.95 36.47,-36.47 84.83,-61.08 138.58,-67.31zm25.24 -43.58l0 42.03c0.59,-0.01 1.18,-0.02 1.77,-0.02l796.08 0c1.53,0 3.05,0.02 4.57,0.05l0 -41.98c-3.24,-0.11 -6.49,-0.18 -9.76,-0.18l-785.7 0c-2.32,0 -4.64,0.03 -6.96,0.09zm-268.66 299.47l37.09 0c-0.74,-7.56 -1.13,-15.23 -1.13,-22.98 0,-6.89 0.3,-13.71 0.89,-20.45l-37.06 0c-0.5,6.76 -0.76,13.58 -0.76,20.45 0,7.73 0.33,15.4 0.96,22.98zm1299.84 0l37.09 0c0.63,-7.58 0.96,-15.24 0.96,-22.98 0,-6.88 -0.26,-13.7 -0.76,-20.45l-37.06 0c0.59,6.74 0.89,13.56 0.89,20.45 0,7.75 -0.38,15.42 -1.13,22.98zm34.66 20.19l-37.54 0c-8.89,47.27 -32.08,89.65 -64.86,122.42 -35.84,35.84 -83.15,60.22 -135.78,66.97l0 41.79c62.13,-7.94 117.99,-36.72 160.32,-79.04 40.46,-40.46 68.52,-93.29 77.86,-152.15zm-37.08 -83.82l37.47 0c-8.92,-59.87 -37.21,-113.64 -78.24,-154.68 -42.33,-42.32 -98.19,-71.09 -160.32,-79.03l0 41.79c52.63,6.75 99.94,31.13 135.78,66.97 33.36,33.36 56.79,76.67 65.32,124.95zm-230.91 -178.67l-796.08 0c-60.3,0 -115.14,24.67 -154.89,64.43 -39.76,39.76 -64.43,94.58 -64.43,154.89 0,60.3 24.68,115.14 64.43,154.89 39.75,39.76 94.58,64.43 154.89,64.43l796.08 0c60.3,0 115.13,-24.68 154.89,-64.43 39.76,-39.75 64.43,-94.58 64.43,-154.89 0,-60.31 -24.68,-115.14 -64.43,-154.89 -39.76,-39.76 -94.58,-64.43 -154.89,-64.43zm-101.56 126.57c39.43,0 71.39,31.97 71.39,71.4 0,39.43 -31.96,71.39 -71.39,71.39 -39.43,0 -71.39,-31.97 -71.39,-71.39 0,-39.43 31.96,-71.4 71.39,-71.4zm-394.46 83.37l111.19 0 0 -30.26 55.32 26.33 55.33 26.34 -55.33 26.34 -55.32 26.34 0 -33.05 -111.19 0 0 -42.03zm222.27 -15.15c21.14,0.3 42.28,0.62 63.42,0.92 22.32,0.31 19.16,4.23 19.16,-17.68 0,-7.18 0,-14.36 0,-21.54 67.81,-42.72 128.33,-40.23 184.33,0 0,7.58 0,15.16 0,22.74 0,19.04 -2.7,15.57 16.75,15.57 22.74,0 45.49,0 68.23,0 0,-9.97 0,-19.95 0,-29.93 0,-24.8 1.84,-20.31 -21.34,-32.58 -93.73,-49.68 -203.7,-55.56 -311.91,1.71 -22.59,11.97 -18.66,8.12 -18.66,33.26 0,9.17 0,18.36 0,27.53zm-600.26 0c21.13,0.3 42.27,0.62 63.42,0.92 22.33,0.31 19.16,4.23 19.16,-17.68 0,-7.18 0,-14.36 0,-21.54 67.81,-42.72 128.33,-40.23 184.33,0 0,7.58 0,15.16 0,22.74 0,19.04 -2.7,15.57 16.76,15.57 22.74,0 45.48,0 68.23,0 0,-9.97 0,-19.95 0,-29.93 0,-24.8 1.84,-20.31 -21.34,-32.58 -93.73,-49.68 -203.7,-55.56 -311.91,1.71 -22.59,11.97 -18.65,8.12 -18.65,33.26 0,9.17 0,18.36 0,27.53zm648.13 150.82l246.57 0c11.85,0 21.54,-9.69 21.54,-21.54 0,-48.08 -21.98,-92.97 -63.5,-115.74 -5.08,39.82 -39.1,70.61 -80.31,70.61 -40.67,0 -74.33,-29.99 -80.09,-69.07 -42.66,22.05 -65.75,63.99 -65.75,114.2 0,11.85 9.69,21.54 21.54,21.54zm-600.26 0l246.56 0c11.85,0 21.54,-9.69 21.54,-21.54 0,-48.08 -21.98,-92.97 -63.5,-115.74 -5.08,39.82 -39.1,70.61 -80.31,70.61 -40.67,0 -74.33,-29.99 -80.09,-69.07 -42.66,22.05 -65.75,63.99 -65.75,114.2 0,11.85 9.69,21.54 21.55,21.54zm124.3 -219.04c39.43,0 71.4,31.97 71.4,71.4 0,39.43 -31.97,71.39 -71.4,71.39 -39.43,0 -71.39,-31.97 -71.39,-71.39 0,-39.43 31.96,-71.4 71.39,-71.4z"/>
 </g>
</svg>
