<?xml version="1.0" encoding="UTF-8"?>
<!DOCTYPE svg PUBLIC "-//W3C//DTD SVG 1.1//EN" "http://www.w3.org/Graphics/SVG/1.1/DTD/svg11.dtd">
<!-- Creator: CorelDRAW 2018 -->
<svg xmlns="http://www.w3.org/2000/svg" xml:space="preserve" width="58.2687mm" height="12.2832mm" version="1.1" style="shape-rendering:geometricPrecision; text-rendering:geometricPrecision; image-rendering:optimizeQuality; fill-rule:evenodd; clip-rule:evenodd"
viewBox="0 0 5928.15 1249.67"
 xmlns:xlink="http://www.w3.org/1999/xlink">
 <defs>
  <style type="text/css">
   <![CDATA[
    .fil1 {fill:black}
    .fil0 {fill:black;fill-rule:nonzero}
   ]]>
  </style>
 </defs>
 <g id="Capa_x0020_1">
  <metadata id="CorelCorpID_0Corel-Layer"/>
  <path class="fil0" d="M624.82 0l4678.51 0c171.85,0 328.06,70.29 441.3,183.53 113.22,113.22 183.51,269.44 183.51,441.31 0,171.86 -70.28,328.09 -183.51,441.31 -113.23,113.23 -269.45,183.52 -441.3,183.52l-4678.51 0c-171.86,0 -328.08,-70.28 -441.31,-183.52 -113.22,-113.22 -183.51,-269.45 -183.51,-441.31 0,-171.87 70.28,-328.09 183.51,-441.31 113.23,-113.23 269.45,-183.53 441.31,-183.53zm25.41 137.13l2299.74 0 0 -75.12 -2325.15 0c-154.73,0 -295.44,63.33 -397.46,165.36 -86.17,86.17 -144.73,199.94 -160.86,326.46l101.25 0c15.62,-105.87 65.54,-200.94 138.04,-273.44 88.38,-88.38 210.31,-143.25 344.44,-143.25zm2327.92 0l2299.75 0c134.13,0 256.07,54.87 344.44,143.25 72.5,72.5 122.43,167.57 138.04,273.44l101.25 0c-16.13,-126.52 -74.69,-240.29 -160.86,-326.46 -102.02,-102.02 -242.72,-165.36 -397.45,-165.36l-2325.17 0 0 75.12zm2785.56 444.87c1.24,14.12 1.87,28.41 1.87,42.83 0,14.43 -0.63,28.7 -1.87,42.82l100.78 0c1.08,-14.14 1.64,-28.42 1.64,-42.82 0,-14.4 -0.56,-28.69 -1.64,-42.83l-100.78 0zm-3.32 113.85c-15.62,105.87 -65.55,200.94 -138.05,273.44 -88.38,88.38 -210.31,143.24 -344.44,143.24l-2299.75 0 0 75.13 2325.17 0c154.73,0 295.43,-63.33 397.45,-165.37 86.17,-86.16 144.74,-199.93 160.86,-326.45l-101.24 0zm-2810.43 416.68l-2299.74 0c-134.13,0 -256.06,-54.86 -344.44,-143.24 -72.5,-72.51 -122.43,-167.58 -138.04,-273.44l-101.25 0c16.12,126.52 74.69,240.29 160.86,326.45 102.02,102.03 242.73,165.37 397.46,165.37l2325.15 0 0 -75.13zm-2785.55 -444.87c-1.24,-14.12 -1.87,-28.4 -1.87,-42.82 0,-14.43 0.63,-28.71 1.87,-42.83l-100.78 0c-1.08,14.14 -1.63,28.44 -1.63,42.83 0,14.41 0.55,28.68 1.63,42.82l100.78 0zm5113.48 -502.33l-4627.67 0c-126.34,0 -241.23,51.7 -324.51,134.99 -83.28,83.29 -134.99,198.17 -134.99,324.52 0,126.35 51.7,241.23 134.99,324.51 83.28,83.29 198.18,135 324.51,135l4627.67 0c126.35,0 241.23,-51.7 324.51,-135 83.29,-83.28 134.99,-198.17 134.99,-324.51 0,-126.36 -51.7,-241.23 -134.99,-324.52 -83.28,-83.28 -198.17,-134.99 -324.51,-134.99z"/>
  <polygon class="fil1" points="3981.42,794.95 1919.42,776.81 3999.6,467.95 "/>
  <polygon class="fil0" points="593.25,528.31 1201.83,528.31 1201.83,752.79 593.25,752.79 "/>
  <polygon class="fil0" points="4658.2,528.31 5266.78,528.31 5266.78,752.79 4658.2,752.79 "/>
  <polygon class="fil0" points="4850.22,944.81 4850.22,336.23 5074.72,336.23 5074.72,944.81 "/>
 </g>
</svg>
